<svg width="49" height="48" viewBox="0 0 49 48" fill="none" xmlns="http://www.w3.org/2000/svg">
<path d="M42.5 14H30.5C29.9696 14 29.4609 14.2107 29.0858 14.5858C28.7107 14.9609 28.5 15.4696 28.5 16V22H24.5V8C24.5 7.46957 24.2893 6.96086 23.9142 6.58579C23.5391 6.21071 23.0304 6 22.5 6H6.5C5.96957 6 5.46086 6.21071 5.08579 6.58579C4.71071 6.96086 4.5 7.46957 4.5 8V40C4.5 40.5304 4.71071 41.0391 5.08579 41.4142C5.46086 41.7893 5.96957 42 6.5 42H42.5C43.0304 42 43.5391 41.7893 43.9142 41.4142C44.2893 41.0391 44.5 40.5304 44.5 40V16C44.5 15.4696 44.2893 14.9609 43.9142 14.5858C43.5391 14.2107 43.0304 14 42.5 14ZM16.5 12H20.5V16H16.5V12ZM12.5 32H8.5V28H12.5V32ZM12.5 24H8.5V20H12.5V24ZM12.5 16H8.5V12H12.5V16ZM20.5 32H16.5V28H20.5V32ZM20.5 24H16.5V20H20.5V24ZM38.5 32H34.5V28H38.5V32ZM38.5 24H34.5V20H38.5V24Z" fill="#192C50"/>
</svg>
