<svg width="49" height="48" viewBox="0 0 49 48" fill="none" xmlns="http://www.w3.org/2000/svg">
<path d="M22.9805 21.587C27.7375 21.587 31.5939 17.7307 31.5939 12.9737C31.5939 8.21667 27.7375 4.36035 22.9805 4.36035C18.2235 4.36035 14.3672 8.21667 14.3672 12.9737C14.3672 17.7307 18.2235 21.587 22.9805 21.587Z" fill="#192C50"/>
<path d="M28.5 37.333H37.8333V39.1997H28.5V37.333Z" fill="#192C50"/>
<path d="M20.5002 40.0003V44.0003C20.5002 44.3539 20.6407 44.6931 20.8907 44.9431C21.1408 45.1932 21.4799 45.3336 21.8335 45.3336H44.5002C44.8538 45.3336 45.193 45.1932 45.443 44.9431C45.6931 44.6931 45.8335 44.3539 45.8335 44.0003V30.667C45.8335 30.3134 45.6931 29.9742 45.443 29.7242C45.193 29.4741 44.8538 29.3336 44.5002 29.3336H35.1669V27.3736C35.1669 27.02 35.0264 26.6809 34.7763 26.4308C34.5263 26.1808 34.1872 26.0403 33.8335 26.0403C33.4799 26.0403 33.1408 26.1808 32.8907 26.4308C32.6407 26.6809 32.5002 27.02 32.5002 27.3736V29.3336H29.8335V24.5603C27.5679 24.1896 25.276 24.0023 22.9802 24.0003C17.9173 23.9788 12.9111 25.0665 8.31354 27.187C7.55685 27.5441 6.91848 28.1107 6.47417 28.8197C6.02987 29.5287 5.79827 30.3503 5.80687 31.187V40.0003H20.5002ZM43.1669 42.667H23.1669V32.0003H32.5002V32.5603C32.5002 32.9139 32.6407 33.2531 32.8907 33.5031C33.1408 33.7532 33.4799 33.8936 33.8335 33.8936C34.1872 33.8936 34.5263 33.7532 34.7763 33.5031C35.0264 33.2531 35.1669 32.9139 35.1669 32.5603V32.0003H43.1669V42.667Z" fill="#192C50"/>
</svg>
