<svg width="159" height="48" viewBox="0 0 159 48" fill="none" xmlns="http://www.w3.org/2000/svg">
<g clip-path="url(#clip0_3003_72)">
<path d="M-0.0117188 38.3433C0.963829 38.1992 1.94938 38.1335 2.93545 38.147C3.97607 38.0656 5.01392 38.3357 5.88263 38.9139C6.21096 39.1848 6.47374 39.5264 6.65131 39.9131C6.82887 40.2998 6.91661 40.7216 6.90799 41.147C6.92526 41.5677 6.85567 41.9874 6.70356 42.38C6.55145 42.7727 6.32007 43.1298 6.02384 43.4292C5.14749 44.154 4.02787 44.5181 2.89248 44.4476C2.6442 44.4483 2.39608 44.434 2.14954 44.4047V47.8464H-0.0117188V38.3433ZM2.14954 42.7176C2.38827 42.7626 2.63126 42.7811 2.87406 42.7728C4.03451 42.7728 4.75288 42.19 4.75288 41.2022C4.75288 40.3188 4.13889 39.7912 3.04598 39.7912C2.74516 39.7852 2.44457 39.812 2.14954 39.871V42.7176Z" fill="#3E63AA"/>
<path d="M-0.0117188 38.3433C0.963829 38.1992 1.94938 38.1335 2.93545 38.147C3.97607 38.0656 5.01392 38.3357 5.88263 38.9139C6.21096 39.1848 6.47374 39.5264 6.65131 39.9131C6.82887 40.2998 6.91661 40.7216 6.90799 41.147C6.92526 41.5677 6.85567 41.9874 6.70356 42.38C6.55145 42.7727 6.32007 43.1298 6.02384 43.4292C5.14749 44.154 4.02787 44.5181 2.89248 44.4476C2.6442 44.4483 2.39608 44.434 2.14954 44.4047V47.8464H-0.0117188V38.3433ZM2.14954 42.7176C2.38827 42.7626 2.63126 42.7811 2.87406 42.7728C4.03451 42.7728 4.75288 42.19 4.75288 41.2022C4.75288 40.3188 4.13889 39.7912 3.04598 39.7912C2.74516 39.7852 2.44457 39.812 2.14954 39.871V42.7176Z" fill="black" fill-opacity="0.2"/>
<path d="M-0.0117188 38.3433C0.963829 38.1992 1.94938 38.1335 2.93545 38.147C3.97607 38.0656 5.01392 38.3357 5.88263 38.9139C6.21096 39.1848 6.47374 39.5264 6.65131 39.9131C6.82887 40.2998 6.91661 40.7216 6.90799 41.147C6.92526 41.5677 6.85567 41.9874 6.70356 42.38C6.55145 42.7727 6.32007 43.1298 6.02384 43.4292C5.14749 44.154 4.02787 44.5181 2.89248 44.4476C2.6442 44.4483 2.39608 44.434 2.14954 44.4047V47.8464H-0.0117188V38.3433ZM2.14954 42.7176C2.38827 42.7626 2.63126 42.7811 2.87406 42.7728C4.03451 42.7728 4.75288 42.19 4.75288 41.2022C4.75288 40.3188 4.13889 39.7912 3.04598 39.7912C2.74516 39.7852 2.44457 39.812 2.14954 39.871V42.7176Z" fill="black" fill-opacity="0.2"/>
<path d="M-0.0117188 38.3433C0.963829 38.1992 1.94938 38.1335 2.93545 38.147C3.97607 38.0656 5.01392 38.3357 5.88263 38.9139C6.21096 39.1848 6.47374 39.5264 6.65131 39.9131C6.82887 40.2998 6.91661 40.7216 6.90799 41.147C6.92526 41.5677 6.85567 41.9874 6.70356 42.38C6.55145 42.7727 6.32007 43.1298 6.02384 43.4292C5.14749 44.154 4.02787 44.5181 2.89248 44.4476C2.6442 44.4483 2.39608 44.434 2.14954 44.4047V47.8464H-0.0117188V38.3433ZM2.14954 42.7176C2.38827 42.7626 2.63126 42.7811 2.87406 42.7728C4.03451 42.7728 4.75288 42.19 4.75288 41.2022C4.75288 40.3188 4.13889 39.7912 3.04598 39.7912C2.74516 39.7852 2.44457 39.812 2.14954 39.871V42.7176Z" fill="black" fill-opacity="0.2"/>
<path d="M8.10409 43.1593C8.10409 42.1286 8.07339 41.4599 8.04883 40.8587H9.9215L9.98905 42.147H10.0505C10.1752 41.74 10.4237 41.3818 10.7615 41.1223C11.0993 40.8629 11.5096 40.715 11.9354 40.6992C12.0896 40.6926 12.244 40.7029 12.3959 40.7299V42.7851C12.1948 42.7374 11.9886 42.7148 11.7819 42.7176C11.443 42.689 11.1053 42.7848 10.8318 42.9869C10.5584 43.189 10.3679 43.4836 10.2961 43.8158C10.2649 43.9775 10.2505 44.1419 10.2531 44.3065V47.8464H8.07952L8.10409 43.1593Z" fill="#3E63AA"/>
<path d="M8.10409 43.1593C8.10409 42.1286 8.07339 41.4599 8.04883 40.8587H9.9215L9.98905 42.147H10.0505C10.1752 41.74 10.4237 41.3818 10.7615 41.1223C11.0993 40.8629 11.5096 40.715 11.9354 40.6992C12.0896 40.6926 12.244 40.7029 12.3959 40.7299V42.7851C12.1948 42.7374 11.9886 42.7148 11.7819 42.7176C11.443 42.689 11.1053 42.7848 10.8318 42.9869C10.5584 43.189 10.3679 43.4836 10.2961 43.8158C10.2649 43.9775 10.2505 44.1419 10.2531 44.3065V47.8464H8.07952L8.10409 43.1593Z" fill="black" fill-opacity="0.2"/>
<path d="M8.10409 43.1593C8.10409 42.1286 8.07339 41.4599 8.04883 40.8587H9.9215L9.98905 42.147H10.0505C10.1752 41.74 10.4237 41.3818 10.7615 41.1223C11.0993 40.8629 11.5096 40.715 11.9354 40.6992C12.0896 40.6926 12.244 40.7029 12.3959 40.7299V42.7851C12.1948 42.7374 11.9886 42.7148 11.7819 42.7176C11.443 42.689 11.1053 42.7848 10.8318 42.9869C10.5584 43.189 10.3679 43.4836 10.2961 43.8158C10.2649 43.9775 10.2505 44.1419 10.2531 44.3065V47.8464H8.07952L8.10409 43.1593Z" fill="black" fill-opacity="0.2"/>
<path d="M8.10409 43.1593C8.10409 42.1286 8.07339 41.4599 8.04883 40.8587H9.9215L9.98905 42.147H10.0505C10.1752 41.74 10.4237 41.3818 10.7615 41.1223C11.0993 40.8629 11.5096 40.715 11.9354 40.6992C12.0896 40.6926 12.244 40.7029 12.3959 40.7299V42.7851C12.1948 42.7374 11.9886 42.7148 11.7819 42.7176C11.443 42.689 11.1053 42.7848 10.8318 42.9869C10.5584 43.189 10.3679 43.4836 10.2961 43.8158C10.2649 43.9775 10.2505 44.1419 10.2531 44.3065V47.8464H8.07952L8.10409 43.1593Z" fill="black" fill-opacity="0.2"/>
<path d="M20.3295 44.2756C20.3613 44.7695 20.2882 45.2645 20.115 45.7282C19.9418 46.1918 19.6724 46.6137 19.3245 46.9659C18.9766 47.3182 18.558 47.5929 18.0963 47.7721C17.6346 47.9513 17.1402 48.0309 16.6455 48.0057C16.1645 48.0331 15.6831 47.9588 15.2327 47.7877C14.7823 47.6166 14.3731 47.3525 14.0318 47.0127C13.6905 46.6728 13.4248 46.2648 13.252 45.8154C13.0792 45.366 13.0033 44.8852 13.0291 44.4044C13.0008 43.9094 13.0785 43.4141 13.2567 42.9514C13.435 42.4887 13.7099 42.0692 14.0631 41.721C14.4163 41.3727 14.8397 41.1036 15.3051 40.9316C15.7705 40.7596 16.2672 40.6887 16.7622 40.7234C17.2356 40.7008 17.7086 40.7771 18.1508 40.9474C18.5931 41.1177 18.9949 41.3784 19.3306 41.7127C19.6663 42.047 19.9286 42.4476 20.1006 42.8889C20.2726 43.3302 20.3505 43.8025 20.3295 44.2756ZM15.2702 44.3431C15.2702 45.5701 15.7675 46.4474 16.6947 46.4474C17.6218 46.4474 18.0823 45.6007 18.0823 44.3431C18.0823 43.3001 17.6832 42.2449 16.6947 42.2449C15.7061 42.2449 15.2702 43.3185 15.2702 44.3431Z" fill="#3E63AA"/>
<path d="M20.3295 44.2756C20.3613 44.7695 20.2882 45.2645 20.115 45.7282C19.9418 46.1918 19.6724 46.6137 19.3245 46.9659C18.9766 47.3182 18.558 47.5929 18.0963 47.7721C17.6346 47.9513 17.1402 48.0309 16.6455 48.0057C16.1645 48.0331 15.6831 47.9588 15.2327 47.7877C14.7823 47.6166 14.3731 47.3525 14.0318 47.0127C13.6905 46.6728 13.4248 46.2648 13.252 45.8154C13.0792 45.366 13.0033 44.8852 13.0291 44.4044C13.0008 43.9094 13.0785 43.4141 13.2567 42.9514C13.435 42.4887 13.7099 42.0692 14.0631 41.721C14.4163 41.3727 14.8397 41.1036 15.3051 40.9316C15.7705 40.7596 16.2672 40.6887 16.7622 40.7234C17.2356 40.7008 17.7086 40.7771 18.1508 40.9474C18.5931 41.1177 18.9949 41.3784 19.3306 41.7127C19.6663 42.047 19.9286 42.4476 20.1006 42.8889C20.2726 43.3302 20.3505 43.8025 20.3295 44.2756ZM15.2702 44.3431C15.2702 45.5701 15.7675 46.4474 16.6947 46.4474C17.6218 46.4474 18.0823 45.6007 18.0823 44.3431C18.0823 43.3001 17.6832 42.2449 16.6947 42.2449C15.7061 42.2449 15.2702 43.3185 15.2702 44.3431Z" fill="black" fill-opacity="0.2"/>
<path d="M20.3295 44.2756C20.3613 44.7695 20.2882 45.2645 20.115 45.7282C19.9418 46.1918 19.6724 46.6137 19.3245 46.9659C18.9766 47.3182 18.558 47.5929 18.0963 47.7721C17.6346 47.9513 17.1402 48.0309 16.6455 48.0057C16.1645 48.0331 15.6831 47.9588 15.2327 47.7877C14.7823 47.6166 14.3731 47.3525 14.0318 47.0127C13.6905 46.6728 13.4248 46.2648 13.252 45.8154C13.0792 45.366 13.0033 44.8852 13.0291 44.4044C13.0008 43.9094 13.0785 43.4141 13.2567 42.9514C13.435 42.4887 13.7099 42.0692 14.0631 41.721C14.4163 41.3727 14.8397 41.1036 15.3051 40.9316C15.7705 40.7596 16.2672 40.6887 16.7622 40.7234C17.2356 40.7008 17.7086 40.7771 18.1508 40.9474C18.5931 41.1177 18.9949 41.3784 19.3306 41.7127C19.6663 42.047 19.9286 42.4476 20.1006 42.8889C20.2726 43.3302 20.3505 43.8025 20.3295 44.2756ZM15.2702 44.3431C15.2702 45.5701 15.7675 46.4474 16.6947 46.4474C17.6218 46.4474 18.0823 45.6007 18.0823 44.3431C18.0823 43.3001 17.6832 42.2449 16.6947 42.2449C15.7061 42.2449 15.2702 43.3185 15.2702 44.3431Z" fill="black" fill-opacity="0.2"/>
<path d="M20.3295 44.2756C20.3613 44.7695 20.2882 45.2645 20.115 45.7282C19.9418 46.1918 19.6724 46.6137 19.3245 46.9659C18.9766 47.3182 18.558 47.5929 18.0963 47.7721C17.6346 47.9513 17.1402 48.0309 16.6455 48.0057C16.1645 48.0331 15.6831 47.9588 15.2327 47.7877C14.7823 47.6166 14.3731 47.3525 14.0318 47.0127C13.6905 46.6728 13.4248 46.2648 13.252 45.8154C13.0792 45.366 13.0033 44.8852 13.0291 44.4044C13.0008 43.9094 13.0785 43.4141 13.2567 42.9514C13.435 42.4887 13.7099 42.0692 14.0631 41.721C14.4163 41.3727 14.8397 41.1036 15.3051 40.9316C15.7705 40.7596 16.2672 40.6887 16.7622 40.7234C17.2356 40.7008 17.7086 40.7771 18.1508 40.9474C18.5931 41.1177 18.9949 41.3784 19.3306 41.7127C19.6663 42.047 19.9286 42.4476 20.1006 42.8889C20.2726 43.3302 20.3505 43.8025 20.3295 44.2756ZM15.2702 44.3431C15.2702 45.5701 15.7675 46.4474 16.6947 46.4474C17.6218 46.4474 18.0823 45.6007 18.0823 44.3431C18.0823 43.3001 17.6832 42.2449 16.6947 42.2449C15.7061 42.2449 15.2702 43.3185 15.2702 44.3431Z" fill="black" fill-opacity="0.2"/>
<path d="M21.6685 43.0861C21.6685 42.2211 21.6685 41.4726 21.6133 40.8591H23.4982L23.6026 41.8162H23.6456C23.8839 41.466 24.2057 41.1806 24.5819 40.9857C24.9581 40.7908 25.377 40.6924 25.8007 40.6996C27.2313 40.6996 28.3058 41.6444 28.3058 43.7057V47.8468H26.1323V43.9757C26.1323 43.0738 25.8191 42.4603 25.0271 42.4603C24.781 42.4623 24.5419 42.5424 24.3443 42.6891C24.1467 42.8358 24.001 43.0414 23.928 43.2763C23.8678 43.4498 23.8387 43.6325 23.8421 43.8162V47.8468H21.6685V43.0861Z" fill="#3E63AA"/>
<path d="M21.6685 43.0861C21.6685 42.2211 21.6685 41.4726 21.6133 40.8591H23.4982L23.6026 41.8162H23.6456C23.8839 41.466 24.2057 41.1806 24.5819 40.9857C24.9581 40.7908 25.377 40.6924 25.8007 40.6996C27.2313 40.6996 28.3058 41.6444 28.3058 43.7057V47.8468H26.1323V43.9757C26.1323 43.0738 25.8191 42.4603 25.0271 42.4603C24.781 42.4623 24.5419 42.5424 24.3443 42.6891C24.1467 42.8358 24.001 43.0414 23.928 43.2763C23.8678 43.4498 23.8387 43.6325 23.8421 43.8162V47.8468H21.6685V43.0861Z" fill="black" fill-opacity="0.2"/>
<path d="M21.6685 43.0861C21.6685 42.2211 21.6685 41.4726 21.6133 40.8591H23.4982L23.6026 41.8162H23.6456C23.8839 41.466 24.2057 41.1806 24.5819 40.9857C24.9581 40.7908 25.377 40.6924 25.8007 40.6996C27.2313 40.6996 28.3058 41.6444 28.3058 43.7057V47.8468H26.1323V43.9757C26.1323 43.0738 25.8191 42.4603 25.0271 42.4603C24.781 42.4623 24.5419 42.5424 24.3443 42.6891C24.1467 42.8358 24.001 43.0414 23.928 43.2763C23.8678 43.4498 23.8387 43.6325 23.8421 43.8162V47.8468H21.6685V43.0861Z" fill="black" fill-opacity="0.2"/>
<path d="M21.6685 43.0861C21.6685 42.2211 21.6685 41.4726 21.6133 40.8591H23.4982L23.6026 41.8162H23.6456C23.8839 41.466 24.2057 41.1806 24.5819 40.9857C24.9581 40.7908 25.377 40.6924 25.8007 40.6996C27.2313 40.6996 28.3058 41.6444 28.3058 43.7057V47.8468H26.1323V43.9757C26.1323 43.0738 25.8191 42.4603 25.0271 42.4603C24.781 42.4623 24.5419 42.5424 24.3443 42.6891C24.1467 42.8358 24.001 43.0414 23.928 43.2763C23.8678 43.4498 23.8387 43.6325 23.8421 43.8162V47.8468H21.6685V43.0861Z" fill="black" fill-opacity="0.2"/>
<path d="M32.3892 38.957V40.8589H33.9487V42.4601H32.3892V44.9877C32.3892 45.8282 32.5918 46.2147 33.2488 46.2147C33.4651 46.2215 33.6815 46.203 33.8935 46.1595V47.8037C33.4375 47.9502 32.9601 48.0186 32.4813 48.0061C32.1819 48.0171 31.8834 47.9686 31.603 47.8632C31.3226 47.7579 31.066 47.5979 30.8481 47.3926C30.384 46.8084 30.164 46.0676 30.2341 45.3251V42.4662H29.3008V40.865H30.2341V39.5521L32.3892 38.957Z" fill="#3E63AA"/>
<path d="M32.3892 38.957V40.8589H33.9487V42.4601H32.3892V44.9877C32.3892 45.8282 32.5918 46.2147 33.2488 46.2147C33.4651 46.2215 33.6815 46.203 33.8935 46.1595V47.8037C33.4375 47.9502 32.9601 48.0186 32.4813 48.0061C32.1819 48.0171 31.8834 47.9686 31.603 47.8632C31.3226 47.7579 31.066 47.5979 30.8481 47.3926C30.384 46.8084 30.164 46.0676 30.2341 45.3251V42.4662H29.3008V40.865H30.2341V39.5521L32.3892 38.957Z" fill="black" fill-opacity="0.2"/>
<path d="M32.3892 38.957V40.8589H33.9487V42.4601H32.3892V44.9877C32.3892 45.8282 32.5918 46.2147 33.2488 46.2147C33.4651 46.2215 33.6815 46.203 33.8935 46.1595V47.8037C33.4375 47.9502 32.9601 48.0186 32.4813 48.0061C32.1819 48.0171 31.8834 47.9686 31.603 47.8632C31.3226 47.7579 31.066 47.5979 30.8481 47.3926C30.384 46.8084 30.164 46.0676 30.2341 45.3251V42.4662H29.3008V40.865H30.2341V39.5521L32.3892 38.957Z" fill="black" fill-opacity="0.2"/>
<path d="M32.3892 38.957V40.8589H33.9487V42.4601H32.3892V44.9877C32.3892 45.8282 32.5918 46.2147 33.2488 46.2147C33.4651 46.2215 33.6815 46.203 33.8935 46.1595V47.8037C33.4375 47.9502 32.9601 48.0186 32.4813 48.0061C32.1819 48.0171 31.8834 47.9686 31.603 47.8632C31.3226 47.7579 31.066 47.5979 30.8481 47.3926C30.384 46.8084 30.164 46.0676 30.2341 45.3251V42.4662H29.3008V40.865H30.2341V39.5521L32.3892 38.957Z" fill="black" fill-opacity="0.2"/>
<path d="M42.0404 44.2756C42.0722 44.7695 41.9992 45.2645 41.826 45.7282C41.6528 46.1918 41.3833 46.6137 41.0354 46.9659C40.6875 47.3182 40.269 47.5929 39.8073 47.7721C39.3456 47.9513 38.8511 48.0309 38.3565 48.0057C37.8754 48.0331 37.394 47.9588 36.9436 47.7877C36.4932 47.6166 36.084 47.3525 35.7427 47.0127C35.4014 46.6728 35.1357 46.2648 34.9629 45.8154C34.7902 45.366 34.7142 44.8852 34.74 44.4044C34.7118 43.9094 34.7894 43.4141 34.9677 42.9514C35.146 42.4887 35.4209 42.0692 35.774 41.721C36.1272 41.3727 36.5506 41.1036 37.016 40.9316C37.4814 40.7596 37.9781 40.6887 38.4731 40.7234C38.9465 40.7008 39.4195 40.7771 39.8617 40.9474C40.304 41.1177 40.7058 41.3784 41.0415 41.7127C41.3773 42.047 41.6395 42.4476 41.8115 42.8889C41.9835 43.3302 42.0615 43.8025 42.0404 44.2756ZM36.9811 44.3431C36.9811 45.5701 37.4785 46.4474 38.4056 46.4474C39.3327 46.4474 39.7932 45.6007 39.7932 44.3431C39.7932 43.3001 39.3941 42.2449 38.4056 42.2449C37.4171 42.2449 36.9811 43.3185 36.9811 44.3431Z" fill="#3E63AA"/>
<path d="M42.0404 44.2756C42.0722 44.7695 41.9992 45.2645 41.826 45.7282C41.6528 46.1918 41.3833 46.6137 41.0354 46.9659C40.6875 47.3182 40.269 47.5929 39.8073 47.7721C39.3456 47.9513 38.8511 48.0309 38.3565 48.0057C37.8754 48.0331 37.394 47.9588 36.9436 47.7877C36.4932 47.6166 36.084 47.3525 35.7427 47.0127C35.4014 46.6728 35.1357 46.2648 34.9629 45.8154C34.7902 45.366 34.7142 44.8852 34.74 44.4044C34.7118 43.9094 34.7894 43.4141 34.9677 42.9514C35.146 42.4887 35.4209 42.0692 35.774 41.721C36.1272 41.3727 36.5506 41.1036 37.016 40.9316C37.4814 40.7596 37.9781 40.6887 38.4731 40.7234C38.9465 40.7008 39.4195 40.7771 39.8617 40.9474C40.304 41.1177 40.7058 41.3784 41.0415 41.7127C41.3773 42.047 41.6395 42.4476 41.8115 42.8889C41.9835 43.3302 42.0615 43.8025 42.0404 44.2756ZM36.9811 44.3431C36.9811 45.5701 37.4785 46.4474 38.4056 46.4474C39.3327 46.4474 39.7932 45.6007 39.7932 44.3431C39.7932 43.3001 39.3941 42.2449 38.4056 42.2449C37.4171 42.2449 36.9811 43.3185 36.9811 44.3431Z" fill="black" fill-opacity="0.2"/>
<path d="M42.0404 44.2756C42.0722 44.7695 41.9992 45.2645 41.826 45.7282C41.6528 46.1918 41.3833 46.6137 41.0354 46.9659C40.6875 47.3182 40.269 47.5929 39.8073 47.7721C39.3456 47.9513 38.8511 48.0309 38.3565 48.0057C37.8754 48.0331 37.394 47.9588 36.9436 47.7877C36.4932 47.6166 36.084 47.3525 35.7427 47.0127C35.4014 46.6728 35.1357 46.2648 34.9629 45.8154C34.7902 45.366 34.7142 44.8852 34.74 44.4044C34.7118 43.9094 34.7894 43.4141 34.9677 42.9514C35.146 42.4887 35.4209 42.0692 35.774 41.721C36.1272 41.3727 36.5506 41.1036 37.016 40.9316C37.4814 40.7596 37.9781 40.6887 38.4731 40.7234C38.9465 40.7008 39.4195 40.7771 39.8617 40.9474C40.304 41.1177 40.7058 41.3784 41.0415 41.7127C41.3773 42.047 41.6395 42.4476 41.8115 42.8889C41.9835 43.3302 42.0615 43.8025 42.0404 44.2756ZM36.9811 44.3431C36.9811 45.5701 37.4785 46.4474 38.4056 46.4474C39.3327 46.4474 39.7932 45.6007 39.7932 44.3431C39.7932 43.3001 39.3941 42.2449 38.4056 42.2449C37.4171 42.2449 36.9811 43.3185 36.9811 44.3431Z" fill="black" fill-opacity="0.2"/>
<path d="M42.0404 44.2756C42.0722 44.7695 41.9992 45.2645 41.826 45.7282C41.6528 46.1918 41.3833 46.6137 41.0354 46.9659C40.6875 47.3182 40.269 47.5929 39.8073 47.7721C39.3456 47.9513 38.8511 48.0309 38.3565 48.0057C37.8754 48.0331 37.394 47.9588 36.9436 47.7877C36.4932 47.6166 36.084 47.3525 35.7427 47.0127C35.4014 46.6728 35.1357 46.2648 34.9629 45.8154C34.7902 45.366 34.7142 44.8852 34.74 44.4044C34.7118 43.9094 34.7894 43.4141 34.9677 42.9514C35.146 42.4887 35.4209 42.0692 35.774 41.721C36.1272 41.3727 36.5506 41.1036 37.016 40.9316C37.4814 40.7596 37.9781 40.6887 38.4731 40.7234C38.9465 40.7008 39.4195 40.7771 39.8617 40.9474C40.304 41.1177 40.7058 41.3784 41.0415 41.7127C41.3773 42.047 41.6395 42.4476 41.8115 42.8889C41.9835 43.3302 42.0615 43.8025 42.0404 44.2756ZM36.9811 44.3431C36.9811 45.5701 37.4785 46.4474 38.4056 46.4474C39.3327 46.4474 39.7932 45.6007 39.7932 44.3431C39.7932 43.3001 39.3941 42.2449 38.4056 42.2449C37.4171 42.2449 36.9811 43.3185 36.9811 44.3431Z" fill="black" fill-opacity="0.2"/>
<path d="M46.4128 45.601C47.1599 45.9863 47.9852 46.1961 48.8258 46.2145C49.8327 46.2145 50.3608 45.7973 50.3608 45.1716C50.3608 44.5458 49.9003 44.2268 48.746 43.8157C47.1434 43.2575 46.0996 42.374 46.0996 40.9691C46.0996 39.3311 47.4688 38.0734 49.7468 38.0734C50.5908 38.0568 51.4284 38.2221 52.2027 38.5581L51.7177 40.3127C51.0892 40.0116 50.4007 39.8564 49.7038 39.8587C48.7582 39.8587 48.2977 40.2881 48.2977 40.7851C48.2977 41.3986 48.8442 41.6746 50.0906 42.1409C51.7914 42.7544 52.5896 43.6562 52.5896 45.0121C52.5896 46.6317 51.3616 48.0182 48.703 48.0182C47.7575 48.0226 46.8234 47.8129 45.9707 47.4047L46.4128 45.601Z" fill="#3E63AA"/>
<path d="M46.4128 45.601C47.1599 45.9863 47.9852 46.1961 48.8258 46.2145C49.8327 46.2145 50.3608 45.7973 50.3608 45.1716C50.3608 44.5458 49.9003 44.2268 48.746 43.8157C47.1434 43.2575 46.0996 42.374 46.0996 40.9691C46.0996 39.3311 47.4688 38.0734 49.7468 38.0734C50.5908 38.0568 51.4284 38.2221 52.2027 38.5581L51.7177 40.3127C51.0892 40.0116 50.4007 39.8564 49.7038 39.8587C48.7582 39.8587 48.2977 40.2881 48.2977 40.7851C48.2977 41.3986 48.8442 41.6746 50.0906 42.1409C51.7914 42.7544 52.5896 43.6562 52.5896 45.0121C52.5896 46.6317 51.3616 48.0182 48.703 48.0182C47.7575 48.0226 46.8234 47.8129 45.9707 47.4047L46.4128 45.601Z" fill="black" fill-opacity="0.2"/>
<path d="M46.4128 45.601C47.1599 45.9863 47.9852 46.1961 48.8258 46.2145C49.8327 46.2145 50.3608 45.7973 50.3608 45.1716C50.3608 44.5458 49.9003 44.2268 48.746 43.8157C47.1434 43.2575 46.0996 42.374 46.0996 40.9691C46.0996 39.3311 47.4688 38.0734 49.7468 38.0734C50.5908 38.0568 51.4284 38.2221 52.2027 38.5581L51.7177 40.3127C51.0892 40.0116 50.4007 39.8564 49.7038 39.8587C48.7582 39.8587 48.2977 40.2881 48.2977 40.7851C48.2977 41.3986 48.8442 41.6746 50.0906 42.1409C51.7914 42.7544 52.5896 43.6562 52.5896 45.0121C52.5896 46.6317 51.3616 48.0182 48.703 48.0182C47.7575 48.0226 46.8234 47.8129 45.9707 47.4047L46.4128 45.601Z" fill="black" fill-opacity="0.2"/>
<path d="M46.4128 45.601C47.1599 45.9863 47.9852 46.1961 48.8258 46.2145C49.8327 46.2145 50.3608 45.7973 50.3608 45.1716C50.3608 44.5458 49.9003 44.2268 48.746 43.8157C47.1434 43.2575 46.0996 42.374 46.0996 40.9691C46.0996 39.3311 47.4688 38.0734 49.7468 38.0734C50.5908 38.0568 51.4284 38.2221 52.2027 38.5581L51.7177 40.3127C51.0892 40.0116 50.4007 39.8564 49.7038 39.8587C48.7582 39.8587 48.2977 40.2881 48.2977 40.7851C48.2977 41.3986 48.8442 41.6746 50.0906 42.1409C51.7914 42.7544 52.5896 43.6562 52.5896 45.0121C52.5896 46.6317 51.3616 48.0182 48.703 48.0182C47.7575 48.0226 46.8234 47.8129 45.9707 47.4047L46.4128 45.601Z" fill="black" fill-opacity="0.2"/>
<path d="M60.9936 44.2756C61.0254 44.7695 60.9523 45.2645 60.7791 45.7282C60.6059 46.1918 60.3365 46.6137 59.9886 46.9659C59.6407 47.3182 59.2221 47.5929 58.7604 47.7721C58.2987 47.9513 57.8043 48.0309 57.3096 48.0057C56.8285 48.0331 56.3471 47.9588 55.8967 47.7877C55.4463 47.6166 55.0371 47.3525 54.6958 47.0127C54.3545 46.6728 54.0888 46.2648 53.9161 45.8154C53.7433 45.366 53.6673 44.8852 53.6932 44.4044C53.6649 43.9094 53.7425 43.4141 53.9208 42.9514C54.0991 42.4887 54.374 42.0692 54.7272 41.721C55.0804 41.3727 55.5038 41.1036 55.9692 40.9316C56.4345 40.7596 56.9313 40.6887 57.4262 40.7234C57.8997 40.7008 58.3726 40.7771 58.8149 40.9474C59.2571 41.1177 59.659 41.3784 59.9947 41.7127C60.3304 42.047 60.5926 42.4476 60.7646 42.8889C60.9366 43.3302 61.0146 43.8025 60.9936 44.2756ZM55.9342 44.3431C55.9342 45.5701 56.4316 46.4474 57.3587 46.4474C58.2858 46.4474 58.7464 45.6007 58.7464 44.3431C58.7464 43.3001 58.3472 42.2449 57.3587 42.2449C56.3702 42.2449 55.9342 43.3185 55.9342 44.3431Z" fill="#3E63AA"/>
<path d="M60.9936 44.2756C61.0254 44.7695 60.9523 45.2645 60.7791 45.7282C60.6059 46.1918 60.3365 46.6137 59.9886 46.9659C59.6407 47.3182 59.2221 47.5929 58.7604 47.7721C58.2987 47.9513 57.8043 48.0309 57.3096 48.0057C56.8285 48.0331 56.3471 47.9588 55.8967 47.7877C55.4463 47.6166 55.0371 47.3525 54.6958 47.0127C54.3545 46.6728 54.0888 46.2648 53.9161 45.8154C53.7433 45.366 53.6673 44.8852 53.6932 44.4044C53.6649 43.9094 53.7425 43.4141 53.9208 42.9514C54.0991 42.4887 54.374 42.0692 54.7272 41.721C55.0804 41.3727 55.5038 41.1036 55.9692 40.9316C56.4345 40.7596 56.9313 40.6887 57.4262 40.7234C57.8997 40.7008 58.3726 40.7771 58.8149 40.9474C59.2571 41.1177 59.659 41.3784 59.9947 41.7127C60.3304 42.047 60.5926 42.4476 60.7646 42.8889C60.9366 43.3302 61.0146 43.8025 60.9936 44.2756ZM55.9342 44.3431C55.9342 45.5701 56.4316 46.4474 57.3587 46.4474C58.2858 46.4474 58.7464 45.6007 58.7464 44.3431C58.7464 43.3001 58.3472 42.2449 57.3587 42.2449C56.3702 42.2449 55.9342 43.3185 55.9342 44.3431Z" fill="black" fill-opacity="0.2"/>
<path d="M60.9936 44.2756C61.0254 44.7695 60.9523 45.2645 60.7791 45.7282C60.6059 46.1918 60.3365 46.6137 59.9886 46.9659C59.6407 47.3182 59.2221 47.5929 58.7604 47.7721C58.2987 47.9513 57.8043 48.0309 57.3096 48.0057C56.8285 48.0331 56.3471 47.9588 55.8967 47.7877C55.4463 47.6166 55.0371 47.3525 54.6958 47.0127C54.3545 46.6728 54.0888 46.2648 53.9161 45.8154C53.7433 45.366 53.6673 44.8852 53.6932 44.4044C53.6649 43.9094 53.7425 43.4141 53.9208 42.9514C54.0991 42.4887 54.374 42.0692 54.7272 41.721C55.0804 41.3727 55.5038 41.1036 55.9692 40.9316C56.4345 40.7596 56.9313 40.6887 57.4262 40.7234C57.8997 40.7008 58.3726 40.7771 58.8149 40.9474C59.2571 41.1177 59.659 41.3784 59.9947 41.7127C60.3304 42.047 60.5926 42.4476 60.7646 42.8889C60.9366 43.3302 61.0146 43.8025 60.9936 44.2756ZM55.9342 44.3431C55.9342 45.5701 56.4316 46.4474 57.3587 46.4474C58.2858 46.4474 58.7464 45.6007 58.7464 44.3431C58.7464 43.3001 58.3472 42.2449 57.3587 42.2449C56.3702 42.2449 55.9342 43.3185 55.9342 44.3431Z" fill="black" fill-opacity="0.2"/>
<path d="M60.9936 44.2756C61.0254 44.7695 60.9523 45.2645 60.7791 45.7282C60.6059 46.1918 60.3365 46.6137 59.9886 46.9659C59.6407 47.3182 59.2221 47.5929 58.7604 47.7721C58.2987 47.9513 57.8043 48.0309 57.3096 48.0057C56.8285 48.0331 56.3471 47.9588 55.8967 47.7877C55.4463 47.6166 55.0371 47.3525 54.6958 47.0127C54.3545 46.6728 54.0888 46.2648 53.9161 45.8154C53.7433 45.366 53.6673 44.8852 53.6932 44.4044C53.6649 43.9094 53.7425 43.4141 53.9208 42.9514C54.0991 42.4887 54.374 42.0692 54.7272 41.721C55.0804 41.3727 55.5038 41.1036 55.9692 40.9316C56.4345 40.7596 56.9313 40.6887 57.4262 40.7234C57.8997 40.7008 58.3726 40.7771 58.8149 40.9474C59.2571 41.1177 59.659 41.3784 59.9947 41.7127C60.3304 42.047 60.5926 42.4476 60.7646 42.8889C60.9366 43.3302 61.0146 43.8025 60.9936 44.2756ZM55.9342 44.3431C55.9342 45.5701 56.4316 46.4474 57.3587 46.4474C58.2858 46.4474 58.7464 45.6007 58.7464 44.3431C58.7464 43.3001 58.3472 42.2449 57.3587 42.2449C56.3702 42.2449 55.9342 43.3185 55.9342 44.3431Z" fill="black" fill-opacity="0.2"/>
<path d="M62.3379 37.7051H64.5053V47.8462H62.3379V37.7051Z" fill="#3E63AA"/>
<path d="M62.3379 37.7051H64.5053V47.8462H62.3379V37.7051Z" fill="black" fill-opacity="0.2"/>
<path d="M62.3379 37.7051H64.5053V47.8462H62.3379V37.7051Z" fill="black" fill-opacity="0.2"/>
<path d="M62.3379 37.7051H64.5053V47.8462H62.3379V37.7051Z" fill="black" fill-opacity="0.2"/>
<path d="M72.8571 45.6006C72.8571 46.5147 72.8878 47.2632 72.9124 47.846H71.0274L70.9292 46.8582H70.8862C70.652 47.2232 70.3267 47.5208 69.9423 47.722C69.558 47.9231 69.1279 48.0208 68.6943 48.0055C67.2821 48.0055 66.2383 47.1159 66.2383 44.938V40.8398H68.4241V44.6006C68.4241 45.6129 68.7557 46.2263 69.5109 46.2263C69.747 46.2245 69.9771 46.1515 70.171 46.0169C70.3649 45.8822 70.5136 45.6922 70.5976 45.4717C70.653 45.3206 70.678 45.1601 70.6713 44.9994V40.8398H72.8571V45.6006Z" fill="#3E63AA"/>
<path d="M72.8571 45.6006C72.8571 46.5147 72.8878 47.2632 72.9124 47.846H71.0274L70.9292 46.8582H70.8862C70.652 47.2232 70.3267 47.5208 69.9423 47.722C69.558 47.9231 69.1279 48.0208 68.6943 48.0055C67.2821 48.0055 66.2383 47.1159 66.2383 44.938V40.8398H68.4241V44.6006C68.4241 45.6129 68.7557 46.2263 69.5109 46.2263C69.747 46.2245 69.9771 46.1515 70.171 46.0169C70.3649 45.8822 70.5136 45.6922 70.5976 45.4717C70.653 45.3206 70.678 45.1601 70.6713 44.9994V40.8398H72.8571V45.6006Z" fill="black" fill-opacity="0.2"/>
<path d="M72.8571 45.6006C72.8571 46.5147 72.8878 47.2632 72.9124 47.846H71.0274L70.9292 46.8582H70.8862C70.652 47.2232 70.3267 47.5208 69.9423 47.722C69.558 47.9231 69.1279 48.0208 68.6943 48.0055C67.2821 48.0055 66.2383 47.1159 66.2383 44.938V40.8398H68.4241V44.6006C68.4241 45.6129 68.7557 46.2263 69.5109 46.2263C69.747 46.2245 69.9771 46.1515 70.171 46.0169C70.3649 45.8822 70.5136 45.6922 70.5976 45.4717C70.653 45.3206 70.678 45.1601 70.6713 44.9994V40.8398H72.8571V45.6006Z" fill="black" fill-opacity="0.2"/>
<path d="M72.8571 45.6006C72.8571 46.5147 72.8878 47.2632 72.9124 47.846H71.0274L70.9292 46.8582H70.8862C70.652 47.2232 70.3267 47.5208 69.9423 47.722C69.558 47.9231 69.1279 48.0208 68.6943 48.0055C67.2821 48.0055 66.2383 47.1159 66.2383 44.938V40.8398H68.4241V44.6006C68.4241 45.6129 68.7557 46.2263 69.5109 46.2263C69.747 46.2245 69.9771 46.1515 70.171 46.0169C70.3649 45.8822 70.5136 45.6922 70.5976 45.4717C70.653 45.3206 70.678 45.1601 70.6713 44.9994V40.8398H72.8571V45.6006Z" fill="black" fill-opacity="0.2"/>
<path d="M77.0326 38.957V40.8589H78.5799V42.4601H77.0203V44.9877C77.0203 45.8282 77.2168 46.2147 77.8738 46.2147C78.0901 46.2215 78.3064 46.203 78.5184 46.1595V47.8037C78.0625 47.9502 77.5851 48.0186 77.1063 48.0061C76.8069 48.0171 76.5084 47.9686 76.228 47.8632C75.9476 47.7579 75.691 47.5979 75.473 47.3926C75.009 46.8084 74.789 46.0676 74.859 45.3251V42.4662H73.9258V40.865H74.8959V39.5521L77.0326 38.957Z" fill="#3E63AA"/>
<path d="M77.0326 38.957V40.8589H78.5799V42.4601H77.0203V44.9877C77.0203 45.8282 77.2168 46.2147 77.8738 46.2147C78.0901 46.2215 78.3064 46.203 78.5184 46.1595V47.8037C78.0625 47.9502 77.5851 48.0186 77.1063 48.0061C76.8069 48.0171 76.5084 47.9686 76.228 47.8632C75.9476 47.7579 75.691 47.5979 75.473 47.3926C75.009 46.8084 74.789 46.0676 74.859 45.3251V42.4662H73.9258V40.865H74.8959V39.5521L77.0326 38.957Z" fill="black" fill-opacity="0.2"/>
<path d="M77.0326 38.957V40.8589H78.5799V42.4601H77.0203V44.9877C77.0203 45.8282 77.2168 46.2147 77.8738 46.2147C78.0901 46.2215 78.3064 46.203 78.5184 46.1595V47.8037C78.0625 47.9502 77.5851 48.0186 77.1063 48.0061C76.8069 48.0171 76.5084 47.9686 76.228 47.8632C75.9476 47.7579 75.691 47.5979 75.473 47.3926C75.009 46.8084 74.789 46.0676 74.859 45.3251V42.4662H73.9258V40.865H74.8959V39.5521L77.0326 38.957Z" fill="black" fill-opacity="0.2"/>
<path d="M77.0326 38.957V40.8589H78.5799V42.4601H77.0203V44.9877C77.0203 45.8282 77.2168 46.2147 77.8738 46.2147C78.0901 46.2215 78.3064 46.203 78.5184 46.1595V47.8037C78.0625 47.9502 77.5851 48.0186 77.1063 48.0061C76.8069 48.0171 76.5084 47.9686 76.228 47.8632C75.9476 47.7579 75.691 47.5979 75.473 47.3926C75.009 46.8084 74.789 46.0676 74.859 45.3251V42.4662H73.9258V40.865H74.8959V39.5521L77.0326 38.957Z" fill="black" fill-opacity="0.2"/>
<path d="M82.0918 38.9136C82.0914 39.0634 82.0601 39.2116 81.9998 39.3488C81.9396 39.4861 81.8518 39.6095 81.7418 39.7113C81.6318 39.8132 81.502 39.8913 81.3604 39.9409C81.2189 39.9905 81.0687 40.0104 80.9191 39.9995C80.6292 39.9995 80.3512 39.8844 80.1463 39.6796C79.9413 39.4748 79.8262 39.1971 79.8262 38.9074C79.8262 38.6178 79.9413 38.34 80.1463 38.1353C80.3512 37.9305 80.6292 37.8154 80.9191 37.8154C81.0697 37.8044 81.221 37.8247 81.3633 37.875C81.5057 37.9253 81.6361 38.0045 81.7463 38.1077C81.8565 38.2109 81.9441 38.3358 82.0035 38.4745C82.063 38.6132 82.0931 38.7627 82.0918 38.9136ZM79.8446 47.8461V40.8584H82.0181V47.8461H79.8446Z" fill="#3E63AA"/>
<path d="M82.0918 38.9136C82.0914 39.0634 82.0601 39.2116 81.9998 39.3488C81.9396 39.4861 81.8518 39.6095 81.7418 39.7113C81.6318 39.8132 81.502 39.8913 81.3604 39.9409C81.2189 39.9905 81.0687 40.0104 80.9191 39.9995C80.6292 39.9995 80.3512 39.8844 80.1463 39.6796C79.9413 39.4748 79.8262 39.1971 79.8262 38.9074C79.8262 38.6178 79.9413 38.34 80.1463 38.1353C80.3512 37.9305 80.6292 37.8154 80.9191 37.8154C81.0697 37.8044 81.221 37.8247 81.3633 37.875C81.5057 37.9253 81.6361 38.0045 81.7463 38.1077C81.8565 38.2109 81.9441 38.3358 82.0035 38.4745C82.063 38.6132 82.0931 38.7627 82.0918 38.9136ZM79.8446 47.8461V40.8584H82.0181V47.8461H79.8446Z" fill="black" fill-opacity="0.2"/>
<path d="M82.0918 38.9136C82.0914 39.0634 82.0601 39.2116 81.9998 39.3488C81.9396 39.4861 81.8518 39.6095 81.7418 39.7113C81.6318 39.8132 81.502 39.8913 81.3604 39.9409C81.2189 39.9905 81.0687 40.0104 80.9191 39.9995C80.6292 39.9995 80.3512 39.8844 80.1463 39.6796C79.9413 39.4748 79.8262 39.1971 79.8262 38.9074C79.8262 38.6178 79.9413 38.34 80.1463 38.1353C80.3512 37.9305 80.6292 37.8154 80.9191 37.8154C81.0697 37.8044 81.221 37.8247 81.3633 37.875C81.5057 37.9253 81.6361 38.0045 81.7463 38.1077C81.8565 38.2109 81.9441 38.3358 82.0035 38.4745C82.063 38.6132 82.0931 38.7627 82.0918 38.9136ZM79.8446 47.8461V40.8584H82.0181V47.8461H79.8446Z" fill="black" fill-opacity="0.2"/>
<path d="M82.0918 38.9136C82.0914 39.0634 82.0601 39.2116 81.9998 39.3488C81.9396 39.4861 81.8518 39.6095 81.7418 39.7113C81.6318 39.8132 81.502 39.8913 81.3604 39.9409C81.2189 39.9905 81.0687 40.0104 80.9191 39.9995C80.6292 39.9995 80.3512 39.8844 80.1463 39.6796C79.9413 39.4748 79.8262 39.1971 79.8262 38.9074C79.8262 38.6178 79.9413 38.34 80.1463 38.1353C80.3512 37.9305 80.6292 37.8154 80.9191 37.8154C81.0697 37.8044 81.221 37.8247 81.3633 37.875C81.5057 37.9253 81.6361 38.0045 81.7463 38.1077C81.8565 38.2109 81.9441 38.3358 82.0035 38.4745C82.063 38.6132 82.0931 38.7627 82.0918 38.9136ZM79.8446 47.8461V40.8584H82.0181V47.8461H79.8446Z" fill="black" fill-opacity="0.2"/>
<path d="M90.6615 44.2756C90.6943 44.7697 90.6219 45.2652 90.4491 45.7293C90.2762 46.1934 90.0068 46.6156 89.6587 46.9681C89.3106 47.3206 88.8917 47.5953 88.4295 47.7741C87.9673 47.953 87.4725 48.0319 86.9776 48.0057C86.4965 48.0331 86.0151 47.9588 85.5647 47.7877C85.1143 47.6166 84.7051 47.3525 84.3638 47.0127C84.0225 46.6728 83.7568 46.2648 83.584 45.8154C83.4113 45.366 83.3353 44.8852 83.3611 44.4044C83.3329 43.9094 83.4105 43.4141 83.5888 42.9514C83.7671 42.4887 84.0419 42.0692 84.3951 41.721C84.7483 41.3727 85.1717 41.1036 85.6371 40.9316C86.1025 40.7596 86.5992 40.6887 87.0942 40.7234C87.5679 40.6998 88.0412 40.7755 88.4839 40.9455C88.9266 41.1155 89.3288 41.3761 89.6648 41.7106C90.0007 42.0451 90.2629 42.446 90.4345 42.8878C90.6062 43.3295 90.6835 43.8022 90.6615 44.2756ZM85.6022 44.3431C85.6022 45.5701 86.1057 46.4474 87.0328 46.4474C87.9599 46.4474 88.4204 45.6007 88.4204 44.3431C88.4204 43.3001 88.0213 42.2449 87.0328 42.2449C86.0443 42.2449 85.6022 43.3185 85.6022 44.3431Z" fill="#3E63AA"/>
<path d="M90.6615 44.2756C90.6943 44.7697 90.6219 45.2652 90.4491 45.7293C90.2762 46.1934 90.0068 46.6156 89.6587 46.9681C89.3106 47.3206 88.8917 47.5953 88.4295 47.7741C87.9673 47.953 87.4725 48.0319 86.9776 48.0057C86.4965 48.0331 86.0151 47.9588 85.5647 47.7877C85.1143 47.6166 84.7051 47.3525 84.3638 47.0127C84.0225 46.6728 83.7568 46.2648 83.584 45.8154C83.4113 45.366 83.3353 44.8852 83.3611 44.4044C83.3329 43.9094 83.4105 43.4141 83.5888 42.9514C83.7671 42.4887 84.0419 42.0692 84.3951 41.721C84.7483 41.3727 85.1717 41.1036 85.6371 40.9316C86.1025 40.7596 86.5992 40.6887 87.0942 40.7234C87.5679 40.6998 88.0412 40.7755 88.4839 40.9455C88.9266 41.1155 89.3288 41.3761 89.6648 41.7106C90.0007 42.0451 90.2629 42.446 90.4345 42.8878C90.6062 43.3295 90.6835 43.8022 90.6615 44.2756ZM85.6022 44.3431C85.6022 45.5701 86.1057 46.4474 87.0328 46.4474C87.9599 46.4474 88.4204 45.6007 88.4204 44.3431C88.4204 43.3001 88.0213 42.2449 87.0328 42.2449C86.0443 42.2449 85.6022 43.3185 85.6022 44.3431Z" fill="black" fill-opacity="0.2"/>
<path d="M90.6615 44.2756C90.6943 44.7697 90.6219 45.2652 90.4491 45.7293C90.2762 46.1934 90.0068 46.6156 89.6587 46.9681C89.3106 47.3206 88.8917 47.5953 88.4295 47.7741C87.9673 47.953 87.4725 48.0319 86.9776 48.0057C86.4965 48.0331 86.0151 47.9588 85.5647 47.7877C85.1143 47.6166 84.7051 47.3525 84.3638 47.0127C84.0225 46.6728 83.7568 46.2648 83.584 45.8154C83.4113 45.366 83.3353 44.8852 83.3611 44.4044C83.3329 43.9094 83.4105 43.4141 83.5888 42.9514C83.7671 42.4887 84.0419 42.0692 84.3951 41.721C84.7483 41.3727 85.1717 41.1036 85.6371 40.9316C86.1025 40.7596 86.5992 40.6887 87.0942 40.7234C87.5679 40.6998 88.0412 40.7755 88.4839 40.9455C88.9266 41.1155 89.3288 41.3761 89.6648 41.7106C90.0007 42.0451 90.2629 42.446 90.4345 42.8878C90.6062 43.3295 90.6835 43.8022 90.6615 44.2756ZM85.6022 44.3431C85.6022 45.5701 86.1057 46.4474 87.0328 46.4474C87.9599 46.4474 88.4204 45.6007 88.4204 44.3431C88.4204 43.3001 88.0213 42.2449 87.0328 42.2449C86.0443 42.2449 85.6022 43.3185 85.6022 44.3431Z" fill="black" fill-opacity="0.2"/>
<path d="M90.6615 44.2756C90.6943 44.7697 90.6219 45.2652 90.4491 45.7293C90.2762 46.1934 90.0068 46.6156 89.6587 46.9681C89.3106 47.3206 88.8917 47.5953 88.4295 47.7741C87.9673 47.953 87.4725 48.0319 86.9776 48.0057C86.4965 48.0331 86.0151 47.9588 85.5647 47.7877C85.1143 47.6166 84.7051 47.3525 84.3638 47.0127C84.0225 46.6728 83.7568 46.2648 83.584 45.8154C83.4113 45.366 83.3353 44.8852 83.3611 44.4044C83.3329 43.9094 83.4105 43.4141 83.5888 42.9514C83.7671 42.4887 84.0419 42.0692 84.3951 41.721C84.7483 41.3727 85.1717 41.1036 85.6371 40.9316C86.1025 40.7596 86.5992 40.6887 87.0942 40.7234C87.5679 40.6998 88.0412 40.7755 88.4839 40.9455C88.9266 41.1155 89.3288 41.3761 89.6648 41.7106C90.0007 42.0451 90.2629 42.446 90.4345 42.8878C90.6062 43.3295 90.6835 43.8022 90.6615 44.2756ZM85.6022 44.3431C85.6022 45.5701 86.1057 46.4474 87.0328 46.4474C87.9599 46.4474 88.4204 45.6007 88.4204 44.3431C88.4204 43.3001 88.0213 42.2449 87.0328 42.2449C86.0443 42.2449 85.6022 43.3185 85.6022 44.3431Z" fill="black" fill-opacity="0.2"/>
<path d="M92.0064 43.0861C92.0064 42.2211 92.0064 41.4726 91.9512 40.8591H93.8361L93.9405 41.8162H93.9835C94.2218 41.466 94.5436 41.1806 94.9198 40.9857C95.296 40.7908 95.7149 40.6924 96.1386 40.6996C97.5692 40.6996 98.6437 41.6444 98.6437 43.7057V47.8468H96.4702V43.9757C96.4702 43.0738 96.157 42.4603 95.3711 42.4603C95.124 42.461 94.8834 42.5405 94.6847 42.6873C94.4859 42.834 94.3392 43.0404 94.2659 43.2763C94.2057 43.4498 94.1766 43.6325 94.18 43.8162V47.8468H92.0064V43.0861Z" fill="#3E63AA"/>
<path d="M92.0064 43.0861C92.0064 42.2211 92.0064 41.4726 91.9512 40.8591H93.8361L93.9405 41.8162H93.9835C94.2218 41.466 94.5436 41.1806 94.9198 40.9857C95.296 40.7908 95.7149 40.6924 96.1386 40.6996C97.5692 40.6996 98.6437 41.6444 98.6437 43.7057V47.8468H96.4702V43.9757C96.4702 43.0738 96.157 42.4603 95.3711 42.4603C95.124 42.461 94.8834 42.5405 94.6847 42.6873C94.4859 42.834 94.3392 43.0404 94.2659 43.2763C94.2057 43.4498 94.1766 43.6325 94.18 43.8162V47.8468H92.0064V43.0861Z" fill="black" fill-opacity="0.2"/>
<path d="M92.0064 43.0861C92.0064 42.2211 92.0064 41.4726 91.9512 40.8591H93.8361L93.9405 41.8162H93.9835C94.2218 41.466 94.5436 41.1806 94.9198 40.9857C95.296 40.7908 95.7149 40.6924 96.1386 40.6996C97.5692 40.6996 98.6437 41.6444 98.6437 43.7057V47.8468H96.4702V43.9757C96.4702 43.0738 96.157 42.4603 95.3711 42.4603C95.124 42.461 94.8834 42.5405 94.6847 42.6873C94.4859 42.834 94.3392 43.0404 94.2659 43.2763C94.2057 43.4498 94.1766 43.6325 94.18 43.8162V47.8468H92.0064V43.0861Z" fill="black" fill-opacity="0.2"/>
<path d="M92.0064 43.0861C92.0064 42.2211 92.0064 41.4726 91.9512 40.8591H93.8361L93.9405 41.8162H93.9835C94.2218 41.466 94.5436 41.1806 94.9198 40.9857C95.296 40.7908 95.7149 40.6924 96.1386 40.6996C97.5692 40.6996 98.6437 41.6444 98.6437 43.7057V47.8468H96.4702V43.9757C96.4702 43.0738 96.157 42.4603 95.3711 42.4603C95.124 42.461 94.8834 42.5405 94.6847 42.6873C94.4859 42.834 94.3392 43.0404 94.2659 43.2763C94.2057 43.4498 94.1766 43.6325 94.18 43.8162V47.8468H92.0064V43.0861Z" fill="black" fill-opacity="0.2"/>
<path d="M100.369 45.9451C100.944 46.2639 101.585 46.4446 102.242 46.4727C102.899 46.4727 103.175 46.2457 103.175 45.8899C103.175 45.534 102.954 45.3622 102.144 45.0923C100.701 44.6015 100.142 43.8162 100.154 43.0064C100.154 41.6874 101.272 40.6997 103.003 40.6997C103.682 40.6904 104.354 40.8286 104.974 41.1046L104.587 42.6015C104.12 42.353 103.6 42.2165 103.071 42.2027C102.543 42.2027 102.242 42.4174 102.242 42.7733C102.242 43.1291 102.512 43.2763 103.372 43.577C104.704 44.0309 105.263 44.6997 105.275 45.7303C105.275 47.031 104.244 48.0064 102.242 48.0064C101.459 48.021 100.685 47.8485 99.9824 47.5033L100.369 45.9451Z" fill="#3E63AA"/>
<path d="M100.369 45.9451C100.944 46.2639 101.585 46.4446 102.242 46.4727C102.899 46.4727 103.175 46.2457 103.175 45.8899C103.175 45.534 102.954 45.3622 102.144 45.0923C100.701 44.6015 100.142 43.8162 100.154 43.0064C100.154 41.6874 101.272 40.6997 103.003 40.6997C103.682 40.6904 104.354 40.8286 104.974 41.1046L104.587 42.6015C104.12 42.353 103.6 42.2165 103.071 42.2027C102.543 42.2027 102.242 42.4174 102.242 42.7733C102.242 43.1291 102.512 43.2763 103.372 43.577C104.704 44.0309 105.263 44.6997 105.275 45.7303C105.275 47.031 104.244 48.0064 102.242 48.0064C101.459 48.021 100.685 47.8485 99.9824 47.5033L100.369 45.9451Z" fill="black" fill-opacity="0.2"/>
<path d="M100.369 45.9451C100.944 46.2639 101.585 46.4446 102.242 46.4727C102.899 46.4727 103.175 46.2457 103.175 45.8899C103.175 45.534 102.954 45.3622 102.144 45.0923C100.701 44.6015 100.142 43.8162 100.154 43.0064C100.154 41.6874 101.272 40.6997 103.003 40.6997C103.682 40.6904 104.354 40.8286 104.974 41.1046L104.587 42.6015C104.12 42.353 103.6 42.2165 103.071 42.2027C102.543 42.2027 102.242 42.4174 102.242 42.7733C102.242 43.1291 102.512 43.2763 103.372 43.577C104.704 44.0309 105.263 44.6997 105.275 45.7303C105.275 47.031 104.244 48.0064 102.242 48.0064C101.459 48.021 100.685 47.8485 99.9824 47.5033L100.369 45.9451Z" fill="black" fill-opacity="0.2"/>
<path d="M100.369 45.9451C100.944 46.2639 101.585 46.4446 102.242 46.4727C102.899 46.4727 103.175 46.2457 103.175 45.8899C103.175 45.534 102.954 45.3622 102.144 45.0923C100.701 44.6015 100.142 43.8162 100.154 43.0064C100.154 41.6874 101.272 40.6997 103.003 40.6997C103.682 40.6904 104.354 40.8286 104.974 41.1046L104.587 42.6015C104.12 42.353 103.6 42.2165 103.071 42.2027C102.543 42.2027 102.242 42.4174 102.242 42.7733C102.242 43.1291 102.512 43.2763 103.372 43.577C104.704 44.0309 105.263 44.6997 105.275 45.7303C105.275 47.031 104.244 48.0064 102.242 48.0064C101.459 48.021 100.685 47.8485 99.9824 47.5033L100.369 45.9451Z" fill="black" fill-opacity="0.2"/>
<path d="M111.791 45.3752L111.103 47.8292H108.844L111.791 38.1973H114.652L117.636 47.8292H115.297L114.554 45.3752H111.791ZM114.247 43.7494L113.633 41.7065C113.467 41.1298 113.295 40.4181 113.148 39.866C113 40.4365 112.859 41.1666 112.706 41.7065L112.129 43.7494H114.247Z" fill="#3E63AA"/>
<path d="M111.791 45.3752L111.103 47.8292H108.844L111.791 38.1973H114.652L117.636 47.8292H115.297L114.554 45.3752H111.791ZM114.247 43.7494L113.633 41.7065C113.467 41.1298 113.295 40.4181 113.148 39.866C113 40.4365 112.859 41.1666 112.706 41.7065L112.129 43.7494H114.247Z" fill="black" fill-opacity="0.2"/>
<path d="M111.791 45.3752L111.103 47.8292H108.844L111.791 38.1973H114.652L117.636 47.8292H115.297L114.554 45.3752H111.791ZM114.247 43.7494L113.633 41.7065C113.467 41.1298 113.295 40.4181 113.148 39.866C113 40.4365 112.859 41.1666 112.706 41.7065L112.129 43.7494H114.247Z" fill="black" fill-opacity="0.2"/>
<path d="M111.791 45.3752L111.103 47.8292H108.844L111.791 38.1973H114.652L117.636 47.8292H115.297L114.554 45.3752H111.791ZM114.247 43.7494L113.633 41.7065C113.467 41.1298 113.295 40.4181 113.148 39.866C113 40.4365 112.859 41.1666 112.706 41.7065L112.129 43.7494H114.247Z" fill="black" fill-opacity="0.2"/>
<path d="M118.766 37.7051H120.945V47.8462H118.772L118.766 37.7051Z" fill="#3E63AA"/>
<path d="M118.766 37.7051H120.945V47.8462H118.772L118.766 37.7051Z" fill="black" fill-opacity="0.2"/>
<path d="M118.766 37.7051H120.945V47.8462H118.772L118.766 37.7051Z" fill="black" fill-opacity="0.2"/>
<path d="M118.766 37.7051H120.945V47.8462H118.772L118.766 37.7051Z" fill="black" fill-opacity="0.2"/>
<path d="M122.695 37.7051H124.869V47.8462H122.695V37.7051Z" fill="#3E63AA"/>
<path d="M122.695 37.7051H124.869V47.8462H122.695V37.7051Z" fill="black" fill-opacity="0.2"/>
<path d="M122.695 37.7051H124.869V47.8462H122.695V37.7051Z" fill="black" fill-opacity="0.2"/>
<path d="M122.695 37.7051H124.869V47.8462H122.695V37.7051Z" fill="black" fill-opacity="0.2"/>
<path d="M128.871 38.9136C128.871 39.0634 128.839 39.2116 128.779 39.3488C128.719 39.4861 128.631 39.6095 128.521 39.7113C128.411 39.8132 128.281 39.8913 128.14 39.9409C127.998 39.9905 127.848 40.0104 127.698 39.9995C127.409 39.9995 127.131 39.8844 126.926 39.6796C126.721 39.4748 126.605 39.1971 126.605 38.9074C126.605 38.6178 126.721 38.34 126.926 38.1353C127.131 37.9305 127.409 37.8154 127.698 37.8154C127.849 37.8044 128 37.8247 128.143 37.875C128.285 37.9253 128.415 38.0045 128.526 38.1077C128.636 38.2109 128.723 38.3358 128.783 38.4745C128.842 38.6132 128.872 38.7627 128.871 38.9136ZM126.624 47.8461V40.8584H128.797V47.8461H126.624Z" fill="#3E63AA"/>
<path d="M128.871 38.9136C128.871 39.0634 128.839 39.2116 128.779 39.3488C128.719 39.4861 128.631 39.6095 128.521 39.7113C128.411 39.8132 128.281 39.8913 128.14 39.9409C127.998 39.9905 127.848 40.0104 127.698 39.9995C127.409 39.9995 127.131 39.8844 126.926 39.6796C126.721 39.4748 126.605 39.1971 126.605 38.9074C126.605 38.6178 126.721 38.34 126.926 38.1353C127.131 37.9305 127.409 37.8154 127.698 37.8154C127.849 37.8044 128 37.8247 128.143 37.875C128.285 37.9253 128.415 38.0045 128.526 38.1077C128.636 38.2109 128.723 38.3358 128.783 38.4745C128.842 38.6132 128.872 38.7627 128.871 38.9136ZM126.624 47.8461V40.8584H128.797V47.8461H126.624Z" fill="black" fill-opacity="0.2"/>
<path d="M128.871 38.9136C128.871 39.0634 128.839 39.2116 128.779 39.3488C128.719 39.4861 128.631 39.6095 128.521 39.7113C128.411 39.8132 128.281 39.8913 128.14 39.9409C127.998 39.9905 127.848 40.0104 127.698 39.9995C127.409 39.9995 127.131 39.8844 126.926 39.6796C126.721 39.4748 126.605 39.1971 126.605 38.9074C126.605 38.6178 126.721 38.34 126.926 38.1353C127.131 37.9305 127.409 37.8154 127.698 37.8154C127.849 37.8044 128 37.8247 128.143 37.875C128.285 37.9253 128.415 38.0045 128.526 38.1077C128.636 38.2109 128.723 38.3358 128.783 38.4745C128.842 38.6132 128.872 38.7627 128.871 38.9136ZM126.624 47.8461V40.8584H128.797V47.8461H126.624Z" fill="black" fill-opacity="0.2"/>
<path d="M128.871 38.9136C128.871 39.0634 128.839 39.2116 128.779 39.3488C128.719 39.4861 128.631 39.6095 128.521 39.7113C128.411 39.8132 128.281 39.8913 128.14 39.9409C127.998 39.9905 127.848 40.0104 127.698 39.9995C127.409 39.9995 127.131 39.8844 126.926 39.6796C126.721 39.4748 126.605 39.1971 126.605 38.9074C126.605 38.6178 126.721 38.34 126.926 38.1353C127.131 37.9305 127.409 37.8154 127.698 37.8154C127.849 37.8044 128 37.8247 128.143 37.875C128.285 37.9253 128.415 38.0045 128.526 38.1077C128.636 38.2109 128.723 38.3358 128.783 38.4745C128.842 38.6132 128.872 38.7627 128.871 38.9136ZM126.624 47.8461V40.8584H128.797V47.8461H126.624Z" fill="black" fill-opacity="0.2"/>
<path d="M136.375 46.1466C136.364 46.715 136.399 47.2833 136.48 47.846H134.515L134.392 47.1466H134.349C134.101 47.4301 133.792 47.6544 133.446 47.803C133.099 47.9516 132.724 48.0208 132.347 48.0055C132.056 48.0214 131.764 47.9776 131.49 47.8767C131.216 47.7759 130.966 47.6201 130.754 47.419C130.542 47.218 130.374 46.9758 130.26 46.7074C130.145 46.439 130.087 46.15 130.088 45.8583C130.088 44.0484 131.715 43.1711 134.189 43.1895V43.0853C134.189 42.7172 133.987 42.1896 132.918 42.1896C132.239 42.1948 131.572 42.3766 130.984 42.7172L130.585 41.3184C131.427 40.8922 132.362 40.6814 133.305 40.7049C135.632 40.7049 136.375 42.0791 136.375 43.7233V46.1466ZM134.263 44.5454C133.115 44.5454 132.231 44.803 132.231 45.6435C132.223 45.757 132.24 45.8707 132.281 45.9769C132.322 46.083 132.386 46.1788 132.467 46.2578C132.549 46.3367 132.648 46.3967 132.755 46.4337C132.863 46.4707 132.977 46.4837 133.09 46.4718C133.338 46.4729 133.58 46.3966 133.783 46.2536C133.985 46.1107 134.138 45.9081 134.22 45.6742C134.247 45.5513 134.262 45.4259 134.263 45.3V44.5454Z" fill="#3E63AA"/>
<path d="M136.375 46.1466C136.364 46.715 136.399 47.2833 136.48 47.846H134.515L134.392 47.1466H134.349C134.101 47.4301 133.792 47.6544 133.446 47.803C133.099 47.9516 132.724 48.0208 132.347 48.0055C132.056 48.0214 131.764 47.9776 131.49 47.8767C131.216 47.7759 130.966 47.6201 130.754 47.419C130.542 47.218 130.374 46.9758 130.26 46.7074C130.145 46.439 130.087 46.15 130.088 45.8583C130.088 44.0484 131.715 43.1711 134.189 43.1895V43.0853C134.189 42.7172 133.987 42.1896 132.918 42.1896C132.239 42.1948 131.572 42.3766 130.984 42.7172L130.585 41.3184C131.427 40.8922 132.362 40.6814 133.305 40.7049C135.632 40.7049 136.375 42.0791 136.375 43.7233V46.1466ZM134.263 44.5454C133.115 44.5454 132.231 44.803 132.231 45.6435C132.223 45.757 132.24 45.8707 132.281 45.9769C132.322 46.083 132.386 46.1788 132.467 46.2578C132.549 46.3367 132.648 46.3967 132.755 46.4337C132.863 46.4707 132.977 46.4837 133.09 46.4718C133.338 46.4729 133.58 46.3966 133.783 46.2536C133.985 46.1107 134.138 45.9081 134.22 45.6742C134.247 45.5513 134.262 45.4259 134.263 45.3V44.5454Z" fill="black" fill-opacity="0.2"/>
<path d="M136.375 46.1466C136.364 46.715 136.399 47.2833 136.48 47.846H134.515L134.392 47.1466H134.349C134.101 47.4301 133.792 47.6544 133.446 47.803C133.099 47.9516 132.724 48.0208 132.347 48.0055C132.056 48.0214 131.764 47.9776 131.49 47.8767C131.216 47.7759 130.966 47.6201 130.754 47.419C130.542 47.218 130.374 46.9758 130.26 46.7074C130.145 46.439 130.087 46.15 130.088 45.8583C130.088 44.0484 131.715 43.1711 134.189 43.1895V43.0853C134.189 42.7172 133.987 42.1896 132.918 42.1896C132.239 42.1948 131.572 42.3766 130.984 42.7172L130.585 41.3184C131.427 40.8922 132.362 40.6814 133.305 40.7049C135.632 40.7049 136.375 42.0791 136.375 43.7233V46.1466ZM134.263 44.5454C133.115 44.5454 132.231 44.803 132.231 45.6435C132.223 45.757 132.24 45.8707 132.281 45.9769C132.322 46.083 132.386 46.1788 132.467 46.2578C132.549 46.3367 132.648 46.3967 132.755 46.4337C132.863 46.4707 132.977 46.4837 133.09 46.4718C133.338 46.4729 133.58 46.3966 133.783 46.2536C133.985 46.1107 134.138 45.9081 134.22 45.6742C134.247 45.5513 134.262 45.4259 134.263 45.3V44.5454Z" fill="black" fill-opacity="0.2"/>
<path d="M136.375 46.1466C136.364 46.715 136.399 47.2833 136.48 47.846H134.515L134.392 47.1466H134.349C134.101 47.4301 133.792 47.6544 133.446 47.803C133.099 47.9516 132.724 48.0208 132.347 48.0055C132.056 48.0214 131.764 47.9776 131.49 47.8767C131.216 47.7759 130.966 47.6201 130.754 47.419C130.542 47.218 130.374 46.9758 130.26 46.7074C130.145 46.439 130.087 46.15 130.088 45.8583C130.088 44.0484 131.715 43.1711 134.189 43.1895V43.0853C134.189 42.7172 133.987 42.1896 132.918 42.1896C132.239 42.1948 131.572 42.3766 130.984 42.7172L130.585 41.3184C131.427 40.8922 132.362 40.6814 133.305 40.7049C135.632 40.7049 136.375 42.0791 136.375 43.7233V46.1466ZM134.263 44.5454C133.115 44.5454 132.231 44.803 132.231 45.6435C132.223 45.757 132.24 45.8707 132.281 45.9769C132.322 46.083 132.386 46.1788 132.467 46.2578C132.549 46.3367 132.648 46.3967 132.755 46.4337C132.863 46.4707 132.977 46.4837 133.09 46.4718C133.338 46.4729 133.58 46.3966 133.783 46.2536C133.985 46.1107 134.138 45.9081 134.22 45.6742C134.247 45.5513 134.262 45.4259 134.263 45.3V44.5454Z" fill="black" fill-opacity="0.2"/>
<path d="M138.087 43.0861C138.087 42.2211 138.087 41.4726 138.031 40.8591H139.916L140.021 41.8162H140.064C140.302 41.466 140.624 41.1806 141 40.9857C141.376 40.7908 141.795 40.6924 142.219 40.6996C143.649 40.6996 144.724 41.6444 144.724 43.7057V47.8468H142.55V43.9757C142.55 43.0738 142.237 42.4603 141.445 42.4603C141.199 42.4623 140.96 42.5424 140.762 42.6891C140.565 42.8358 140.419 43.0414 140.346 43.2763C140.286 43.4498 140.257 43.6325 140.26 43.8162V47.8468H138.087V43.0861Z" fill="#3E63AA"/>
<path d="M138.087 43.0861C138.087 42.2211 138.087 41.4726 138.031 40.8591H139.916L140.021 41.8162H140.064C140.302 41.466 140.624 41.1806 141 40.9857C141.376 40.7908 141.795 40.6924 142.219 40.6996C143.649 40.6996 144.724 41.6444 144.724 43.7057V47.8468H142.55V43.9757C142.55 43.0738 142.237 42.4603 141.445 42.4603C141.199 42.4623 140.96 42.5424 140.762 42.6891C140.565 42.8358 140.419 43.0414 140.346 43.2763C140.286 43.4498 140.257 43.6325 140.26 43.8162V47.8468H138.087V43.0861Z" fill="black" fill-opacity="0.2"/>
<path d="M138.087 43.0861C138.087 42.2211 138.087 41.4726 138.031 40.8591H139.916L140.021 41.8162H140.064C140.302 41.466 140.624 41.1806 141 40.9857C141.376 40.7908 141.795 40.6924 142.219 40.6996C143.649 40.6996 144.724 41.6444 144.724 43.7057V47.8468H142.55V43.9757C142.55 43.0738 142.237 42.4603 141.445 42.4603C141.199 42.4623 140.96 42.5424 140.762 42.6891C140.565 42.8358 140.419 43.0414 140.346 43.2763C140.286 43.4498 140.257 43.6325 140.26 43.8162V47.8468H138.087V43.0861Z" fill="black" fill-opacity="0.2"/>
<path d="M138.087 43.0861C138.087 42.2211 138.087 41.4726 138.031 40.8591H139.916L140.021 41.8162H140.064C140.302 41.466 140.624 41.1806 141 40.9857C141.376 40.7908 141.795 40.6924 142.219 40.6996C143.649 40.6996 144.724 41.6444 144.724 43.7057V47.8468H142.55V43.9757C142.55 43.0738 142.237 42.4603 141.445 42.4603C141.199 42.4623 140.96 42.5424 140.762 42.6891C140.565 42.8358 140.419 43.0414 140.346 43.2763C140.286 43.4498 140.257 43.6325 140.26 43.8162V47.8468H138.087V43.0861Z" fill="black" fill-opacity="0.2"/>
<path d="M151.712 47.675C151.092 47.9075 150.434 48.0199 149.772 48.0062C147.512 48.0062 146.088 46.6197 146.088 44.4173C146.088 42.3743 147.494 40.6995 150.091 40.6995C150.657 40.6977 151.22 40.791 151.755 40.9756L151.411 42.5891C151.022 42.4306 150.603 42.3574 150.183 42.3743C149.664 42.38 149.168 42.5917 148.805 42.9627C148.441 43.3338 148.24 43.8338 148.246 44.3529C148.252 44.8719 148.464 45.3674 148.835 45.7304C149.206 46.0934 149.707 46.2941 150.226 46.2885C150.647 46.2963 151.064 46.2191 151.454 46.0615L151.712 47.675Z" fill="#3E63AA"/>
<path d="M151.712 47.675C151.092 47.9075 150.434 48.0199 149.772 48.0062C147.512 48.0062 146.088 46.6197 146.088 44.4173C146.088 42.3743 147.494 40.6995 150.091 40.6995C150.657 40.6977 151.22 40.791 151.755 40.9756L151.411 42.5891C151.022 42.4306 150.603 42.3574 150.183 42.3743C149.664 42.38 149.168 42.5917 148.805 42.9627C148.441 43.3338 148.24 43.8338 148.246 44.3529C148.252 44.8719 148.464 45.3674 148.835 45.7304C149.206 46.0934 149.707 46.2941 150.226 46.2885C150.647 46.2963 151.064 46.2191 151.454 46.0615L151.712 47.675Z" fill="black" fill-opacity="0.2"/>
<path d="M151.712 47.675C151.092 47.9075 150.434 48.0199 149.772 48.0062C147.512 48.0062 146.088 46.6197 146.088 44.4173C146.088 42.3743 147.494 40.6995 150.091 40.6995C150.657 40.6977 151.22 40.791 151.755 40.9756L151.411 42.5891C151.022 42.4306 150.603 42.3574 150.183 42.3743C149.664 42.38 149.168 42.5917 148.805 42.9627C148.441 43.3338 148.24 43.8338 148.246 44.3529C148.252 44.8719 148.464 45.3674 148.835 45.7304C149.206 46.0934 149.707 46.2941 150.226 46.2885C150.647 46.2963 151.064 46.2191 151.454 46.0615L151.712 47.675Z" fill="black" fill-opacity="0.2"/>
<path d="M151.712 47.675C151.092 47.9075 150.434 48.0199 149.772 48.0062C147.512 48.0062 146.088 46.6197 146.088 44.4173C146.088 42.3743 147.494 40.6995 150.091 40.6995C150.657 40.6977 151.22 40.791 151.755 40.9756L151.411 42.5891C151.022 42.4306 150.603 42.3574 150.183 42.3743C149.664 42.38 149.168 42.5917 148.805 42.9627C148.441 43.3338 148.24 43.8338 148.246 44.3529C148.252 44.8719 148.464 45.3674 148.835 45.7304C149.206 46.0934 149.707 46.2941 150.226 46.2885C150.647 46.2963 151.064 46.2191 151.454 46.0615L151.712 47.675Z" fill="black" fill-opacity="0.2"/>
<path d="M154.427 45.0428C154.5 45.9446 155.384 46.3741 156.404 46.3741C157.058 46.3835 157.709 46.2861 158.332 46.0857L158.62 47.5581C157.813 47.8651 156.954 48.0171 156.091 48.006C153.714 48.006 152.357 46.6195 152.357 44.4293C152.357 42.6624 153.456 40.6992 155.888 40.6992C158.147 40.6992 159.007 42.46 159.007 44.19C159.008 44.4759 158.983 44.7613 158.933 45.0428H154.427ZM156.987 43.5581C157.014 43.3823 157.002 43.2027 156.952 43.0319C156.903 42.8611 156.816 42.7031 156.7 42.5689C156.583 42.4346 156.438 42.3274 156.276 42.2546C156.113 42.1817 155.937 42.1451 155.759 42.1471C155.397 42.1674 155.057 42.3245 154.807 42.5867C154.557 42.8488 154.417 43.1962 154.414 43.5581H156.987Z" fill="#3E63AA"/>
<path d="M154.427 45.0428C154.5 45.9446 155.384 46.3741 156.404 46.3741C157.058 46.3835 157.709 46.2861 158.332 46.0857L158.62 47.5581C157.813 47.8651 156.954 48.0171 156.091 48.006C153.714 48.006 152.357 46.6195 152.357 44.4293C152.357 42.6624 153.456 40.6992 155.888 40.6992C158.147 40.6992 159.007 42.46 159.007 44.19C159.008 44.4759 158.983 44.7613 158.933 45.0428H154.427ZM156.987 43.5581C157.014 43.3823 157.002 43.2027 156.952 43.0319C156.903 42.8611 156.816 42.7031 156.7 42.5689C156.583 42.4346 156.438 42.3274 156.276 42.2546C156.113 42.1817 155.937 42.1451 155.759 42.1471C155.397 42.1674 155.057 42.3245 154.807 42.5867C154.557 42.8488 154.417 43.1962 154.414 43.5581H156.987Z" fill="black" fill-opacity="0.2"/>
<path d="M154.427 45.0428C154.5 45.9446 155.384 46.3741 156.404 46.3741C157.058 46.3835 157.709 46.2861 158.332 46.0857L158.62 47.5581C157.813 47.8651 156.954 48.0171 156.091 48.006C153.714 48.006 152.357 46.6195 152.357 44.4293C152.357 42.6624 153.456 40.6992 155.888 40.6992C158.147 40.6992 159.007 42.46 159.007 44.19C159.008 44.4759 158.983 44.7613 158.933 45.0428H154.427ZM156.987 43.5581C157.014 43.3823 157.002 43.2027 156.952 43.0319C156.903 42.8611 156.816 42.7031 156.7 42.5689C156.583 42.4346 156.438 42.3274 156.276 42.2546C156.113 42.1817 155.937 42.1451 155.759 42.1471C155.397 42.1674 155.057 42.3245 154.807 42.5867C154.557 42.8488 154.417 43.1962 154.414 43.5581H156.987Z" fill="black" fill-opacity="0.2"/>
<path d="M154.427 45.0428C154.5 45.9446 155.384 46.3741 156.404 46.3741C157.058 46.3835 157.709 46.2861 158.332 46.0857L158.62 47.5581C157.813 47.8651 156.954 48.0171 156.091 48.006C153.714 48.006 152.357 46.6195 152.357 44.4293C152.357 42.6624 153.456 40.6992 155.888 40.6992C158.147 40.6992 159.007 42.46 159.007 44.19C159.008 44.4759 158.983 44.7613 158.933 45.0428H154.427ZM156.987 43.5581C157.014 43.3823 157.002 43.2027 156.952 43.0319C156.903 42.8611 156.816 42.7031 156.7 42.5689C156.583 42.4346 156.438 42.3274 156.276 42.2546C156.113 42.1817 155.937 42.1451 155.759 42.1471C155.397 42.1674 155.057 42.3245 154.807 42.5867C154.557 42.8488 154.417 43.1962 154.414 43.5581H156.987Z" fill="black" fill-opacity="0.2"/>
<path d="M0.0683594 34.3994H9.37652V23.97C10.0274 24.0191 10.5738 24.0191 10.7764 24.0191C13.1797 24.0693 15.5623 23.5654 17.7391 22.5467C11.6835 20.9238 5.77301 18.802 0.0683594 16.2031V34.3994Z" fill="#3E63AA"/>
<path d="M0.0683594 34.3994H9.37652V23.97C10.0274 24.0191 10.5738 24.0191 10.7764 24.0191C13.1797 24.0693 15.5623 23.5654 17.7391 22.5467C11.6835 20.9238 5.77301 18.802 0.0683594 16.2031V34.3994Z" fill="black" fill-opacity="0.2"/>
<path d="M0.0683594 34.3994H9.37652V23.97C10.0274 24.0191 10.5738 24.0191 10.7764 24.0191C13.1797 24.0693 15.5623 23.5654 17.7391 22.5467C11.6835 20.9238 5.77301 18.802 0.0683594 16.2031V34.3994Z" fill="black" fill-opacity="0.2"/>
<path d="M0.0683594 34.3994H9.37652V23.97C10.0274 24.0191 10.5738 24.0191 10.7764 24.0191C13.1797 24.0693 15.5623 23.5654 17.7391 22.5467C11.6835 20.9238 5.77301 18.802 0.0683594 16.2031V34.3994Z" fill="black" fill-opacity="0.2"/>
<path d="M9.37623 8.01749C9.67375 7.98273 9.97312 7.96634 10.2727 7.96842C13.4777 7.96842 14.6259 9.8089 14.6259 12.0175C14.6466 12.6553 14.5161 13.289 14.2451 13.8669C13.974 14.4447 13.5701 14.9504 13.0663 15.3426C16.0688 16.5022 19.2063 17.5267 22.3929 18.4101C23.6301 16.3786 24.2686 14.0395 24.2349 11.6617C24.2349 4.21382 19.2861 0.367188 10.2788 0.367188C6.59484 0.367188 3.17489 0.465343 0.0742188 0.612583V9.0175C3.06593 10.8124 6.17573 12.4029 9.38236 13.7782L9.37623 8.01749Z" fill="#3E63AA"/>
<path d="M9.37623 8.01749C9.67375 7.98273 9.97312 7.96634 10.2727 7.96842C13.4777 7.96842 14.6259 9.8089 14.6259 12.0175C14.6466 12.6553 14.5161 13.289 14.2451 13.8669C13.974 14.4447 13.5701 14.9504 13.0663 15.3426C16.0688 16.5022 19.2063 17.5267 22.3929 18.4101C23.6301 16.3786 24.2686 14.0395 24.2349 11.6617C24.2349 4.21382 19.2861 0.367188 10.2788 0.367188C6.59484 0.367188 3.17489 0.465343 0.0742188 0.612583V9.0175C3.06593 10.8124 6.17573 12.4029 9.38236 13.7782L9.37623 8.01749Z" fill="black" fill-opacity="0.2"/>
<path d="M9.37623 8.01749C9.67375 7.98273 9.97312 7.96634 10.2727 7.96842C13.4777 7.96842 14.6259 9.8089 14.6259 12.0175C14.6466 12.6553 14.5161 13.289 14.2451 13.8669C13.974 14.4447 13.5701 14.9504 13.0663 15.3426C16.0688 16.5022 19.2063 17.5267 22.3929 18.4101C23.6301 16.3786 24.2686 14.0395 24.2349 11.6617C24.2349 4.21382 19.2861 0.367188 10.2788 0.367188C6.59484 0.367188 3.17489 0.465343 0.0742188 0.612583V9.0175C3.06593 10.8124 6.17573 12.4029 9.38236 13.7782L9.37623 8.01749Z" fill="black" fill-opacity="0.2"/>
<path d="M9.37623 8.01749C9.67375 7.98273 9.97312 7.96634 10.2727 7.96842C13.4777 7.96842 14.6259 9.8089 14.6259 12.0175C14.6466 12.6553 14.5161 13.289 14.2451 13.8669C13.974 14.4447 13.5701 14.9504 13.0663 15.3426C16.0688 16.5022 19.2063 17.5267 22.3929 18.4101C23.6301 16.3786 24.2686 14.0395 24.2349 11.6617C24.2349 4.21382 19.2861 0.367188 10.2788 0.367188C6.59484 0.367188 3.17489 0.465343 0.0742188 0.612583V9.0175C3.06593 10.8124 6.17573 12.4029 9.38236 13.7782L9.37623 8.01749Z" fill="black" fill-opacity="0.2"/>
<path d="M11.2241 16.1602C10.8472 16.2454 10.4623 16.2906 10.0759 16.2951H9.95312C13.7034 17.6448 17.519 18.8058 21.3857 19.7737C21.4778 19.6632 21.576 19.5651 21.6681 19.4547C17.8982 18.4485 14.423 17.3258 11.2241 16.1602Z" fill="#3E63AA"/>
<path d="M11.2241 16.1602C10.8472 16.2454 10.4623 16.2906 10.0759 16.2951H9.95312C13.7034 17.6448 17.519 18.8058 21.3857 19.7737C21.4778 19.6632 21.576 19.5651 21.6681 19.4547C17.8982 18.4485 14.423 17.3258 11.2241 16.1602Z" fill="black" fill-opacity="0.2"/>
<path d="M11.2241 16.1602C10.8472 16.2454 10.4623 16.2906 10.0759 16.2951H9.95312C13.7034 17.6448 17.519 18.8058 21.3857 19.7737C21.4778 19.6632 21.576 19.5651 21.6681 19.4547C17.8982 18.4485 14.423 17.3258 11.2241 16.1602Z" fill="black" fill-opacity="0.2"/>
<path d="M11.2241 16.1602C10.8472 16.2454 10.4623 16.2906 10.0759 16.2951H9.95312C13.7034 17.6448 17.519 18.8058 21.3857 19.7737C21.4778 19.6632 21.576 19.5651 21.6681 19.4547C17.8982 18.4485 14.423 17.3258 11.2241 16.1602Z" fill="black" fill-opacity="0.2"/>
<path d="M9.37652 15.4777C5.91359 14.1525 2.80677 12.7844 0.0683594 11.4531V12.0666C3.09371 13.5784 6.20128 14.9199 9.37652 16.085V15.4777Z" fill="#3E63AA"/>
<path d="M9.37652 15.4777C5.91359 14.1525 2.80677 12.7844 0.0683594 11.4531V12.0666C3.09371 13.5784 6.20128 14.9199 9.37652 16.085V15.4777Z" fill="black" fill-opacity="0.2"/>
<path d="M9.37652 15.4777C5.91359 14.1525 2.80677 12.7844 0.0683594 11.4531V12.0666C3.09371 13.5784 6.20128 14.9199 9.37652 16.085V15.4777Z" fill="black" fill-opacity="0.2"/>
<path d="M9.37652 15.4777C5.91359 14.1525 2.80677 12.7844 0.0683594 11.4531V12.0666C3.09371 13.5784 6.20128 14.9199 9.37652 16.085V15.4777Z" fill="black" fill-opacity="0.2"/>
<path d="M19.5013 21.5158C12.8526 19.8493 6.35288 17.6373 0.0683594 14.9023V15.4361C6.22766 18.019 12.5613 20.1654 19.0224 21.8594C19.1881 21.749 19.3416 21.6201 19.5013 21.5158Z" fill="#3E63AA"/>
<path d="M19.5013 21.5158C12.8526 19.8493 6.35288 17.6373 0.0683594 14.9023V15.4361C6.22766 18.019 12.5613 20.1654 19.0224 21.8594C19.1881 21.749 19.3416 21.6201 19.5013 21.5158Z" fill="black" fill-opacity="0.2"/>
<path d="M19.5013 21.5158C12.8526 19.8493 6.35288 17.6373 0.0683594 14.9023V15.4361C6.22766 18.019 12.5613 20.1654 19.0224 21.8594C19.1881 21.749 19.3416 21.6201 19.5013 21.5158Z" fill="black" fill-opacity="0.2"/>
<path d="M19.5013 21.5158C12.8526 19.8493 6.35288 17.6373 0.0683594 14.9023V15.4361C6.22766 18.019 12.5613 20.1654 19.0224 21.8594C19.1881 21.749 19.3416 21.6201 19.5013 21.5158Z" fill="black" fill-opacity="0.2"/>
<path d="M38.5536 24.8105C38.5382 24.9657 38.5031 25.1182 38.4492 25.2645C41.7279 25.5713 44.9944 25.7553 48.2731 25.829C48.2731 25.7001 48.3284 25.5713 48.3529 25.4363C44.9821 25.3382 41.7034 25.1234 38.5536 24.8105Z" fill="#3E63AA"/>
<path d="M38.5536 24.8105C38.5382 24.9657 38.5031 25.1182 38.4492 25.2645C41.7279 25.5713 44.9944 25.7553 48.2731 25.829C48.2731 25.7001 48.3284 25.5713 48.3529 25.4363C44.9821 25.3382 41.7034 25.1234 38.5536 24.8105Z" fill="black" fill-opacity="0.2"/>
<path d="M38.5536 24.8105C38.5382 24.9657 38.5031 25.1182 38.4492 25.2645C41.7279 25.5713 44.9944 25.7553 48.2731 25.829C48.2731 25.7001 48.3284 25.5713 48.3529 25.4363C44.9821 25.3382 41.7034 25.1234 38.5536 24.8105Z" fill="black" fill-opacity="0.2"/>
<path d="M38.5536 24.8105C38.5382 24.9657 38.5031 25.1182 38.4492 25.2645C41.7279 25.5713 44.9944 25.7553 48.2731 25.829C48.2731 25.7001 48.3284 25.5713 48.3529 25.4363C44.9821 25.3382 41.7034 25.1234 38.5536 24.8105Z" fill="black" fill-opacity="0.2"/>
<path d="M38.0555 25.9514C37.4415 26.6446 36.3363 27.0434 34.8873 27.0434C32.4372 27.0121 30.0071 26.5981 27.6851 25.8164L27.1816 34.3133C29.4688 34.7942 31.801 35.0287 34.1382 35.0127C41.6842 35.0127 46.7251 31.4238 48.1557 26.2888C44.6314 26.3133 41.2728 26.1906 38.0555 25.9514Z" fill="#3E63AA"/>
<path d="M38.0555 25.9514C37.4415 26.6446 36.3363 27.0434 34.8873 27.0434C32.4372 27.0121 30.0071 26.5981 27.6851 25.8164L27.1816 34.3133C29.4688 34.7942 31.801 35.0287 34.1382 35.0127C41.6842 35.0127 46.7251 31.4238 48.1557 26.2888C44.6314 26.3133 41.2728 26.1906 38.0555 25.9514Z" fill="black" fill-opacity="0.2"/>
<path d="M38.0555 25.9514C37.4415 26.6446 36.3363 27.0434 34.8873 27.0434C32.4372 27.0121 30.0071 26.5981 27.6851 25.8164L27.1816 34.3133C29.4688 34.7942 31.801 35.0287 34.1382 35.0127C41.6842 35.0127 46.7251 31.4238 48.1557 26.2888C44.6314 26.3133 41.2728 26.1906 38.0555 25.9514Z" fill="black" fill-opacity="0.2"/>
<path d="M38.0555 25.9514C37.4415 26.6446 36.3363 27.0434 34.8873 27.0434C32.4372 27.0121 30.0071 26.5981 27.6851 25.8164L27.1816 34.3133C29.4688 34.7942 31.801 35.0287 34.1382 35.0127C41.6842 35.0127 46.7251 31.4238 48.1557 26.2888C44.6314 26.3133 41.2728 26.1906 38.0555 25.9514Z" fill="black" fill-opacity="0.2"/>
<path d="M48.5919 23.1963C48.5919 12.6503 35.9866 14.2945 35.9866 10.0491C35.9866 8.74847 37.0857 7.6994 39.6706 7.6994C41.7038 7.72235 43.7242 8.02372 45.6755 8.5951L46.1728 0.552153C44.1431 0.212878 42.0906 0.0282913 40.0329 0C31.1299 0 25.9785 4.29447 25.9785 11C25.9785 18.681 31.5475 19.9693 35.2805 21.4294C39.7013 22.2331 44.165 22.8405 48.5797 23.2699C48.5802 23.2449 48.5844 23.2202 48.5919 23.1963Z" fill="#3E63AA"/>
<path d="M48.5919 23.1963C48.5919 12.6503 35.9866 14.2945 35.9866 10.0491C35.9866 8.74847 37.0857 7.6994 39.6706 7.6994C41.7038 7.72235 43.7242 8.02372 45.6755 8.5951L46.1728 0.552153C44.1431 0.212878 42.0906 0.0282913 40.0329 0C31.1299 0 25.9785 4.29447 25.9785 11C25.9785 18.681 31.5475 19.9693 35.2805 21.4294C39.7013 22.2331 44.165 22.8405 48.5797 23.2699C48.5802 23.2449 48.5844 23.2202 48.5919 23.1963Z" fill="black" fill-opacity="0.2"/>
<path d="M48.5919 23.1963C48.5919 12.6503 35.9866 14.2945 35.9866 10.0491C35.9866 8.74847 37.0857 7.6994 39.6706 7.6994C41.7038 7.72235 43.7242 8.02372 45.6755 8.5951L46.1728 0.552153C44.1431 0.212878 42.0906 0.0282913 40.0329 0C31.1299 0 25.9785 4.29447 25.9785 11C25.9785 18.681 31.5475 19.9693 35.2805 21.4294C39.7013 22.2331 44.165 22.8405 48.5797 23.2699C48.5802 23.2449 48.5844 23.2202 48.5919 23.1963Z" fill="black" fill-opacity="0.2"/>
<path d="M48.5919 23.1963C48.5919 12.6503 35.9866 14.2945 35.9866 10.0491C35.9866 8.74847 37.0857 7.6994 39.6706 7.6994C41.7038 7.72235 43.7242 8.02372 45.6755 8.5951L46.1728 0.552153C44.1431 0.212878 42.0906 0.0282913 40.0329 0C31.1299 0 25.9785 4.29447 25.9785 11C25.9785 18.681 31.5475 19.9693 35.2805 21.4294C39.7013 22.2331 44.165 22.8405 48.5797 23.2699C48.5802 23.2449 48.5844 23.2202 48.5919 23.1963Z" fill="black" fill-opacity="0.2"/>
<path d="M48.5485 23.9703C48.5485 23.9028 48.5485 23.8291 48.5485 23.7617C44.754 23.5285 41.1233 23.1666 37.6562 22.6758C37.7422 22.7555 37.8343 22.8291 37.908 22.9089C41.4446 23.3567 44.9996 23.7371 48.5485 23.9703Z" fill="#3E63AA"/>
<path d="M48.5485 23.9703C48.5485 23.9028 48.5485 23.8291 48.5485 23.7617C44.754 23.5285 41.1233 23.1666 37.6562 22.6758C37.7422 22.7555 37.8343 22.8291 37.908 22.9089C41.4446 23.3567 44.9996 23.7371 48.5485 23.9703Z" fill="black" fill-opacity="0.2"/>
<path d="M48.5485 23.9703C48.5485 23.9028 48.5485 23.8291 48.5485 23.7617C44.754 23.5285 41.1233 23.1666 37.6562 22.6758C37.7422 22.7555 37.8343 22.8291 37.908 22.9089C41.4446 23.3567 44.9996 23.7371 48.5485 23.9703Z" fill="black" fill-opacity="0.2"/>
<path d="M48.5485 23.9703C48.5485 23.9028 48.5485 23.8291 48.5485 23.7617C44.754 23.5285 41.1233 23.1666 37.6562 22.6758C37.7422 22.7555 37.8343 22.8291 37.908 22.9089C41.4446 23.3567 44.9996 23.7371 48.5485 23.9703Z" fill="black" fill-opacity="0.2"/>
<path d="M76.7865 23.5332C67.9963 24.9571 59.0985 25.6119 50.1944 25.4903L50.0716 25.8645C54.6458 25.9136 59.2815 25.7725 64.04 25.4903C59.0543 25.9872 54.3695 26.2387 49.9181 26.3001L47.2656 34.3982H56.4755L58.1763 28.8768H68.5835L70.3334 34.3982H80.4827L76.7865 23.5332Z" fill="#3E63AA"/>
<path d="M76.7865 23.5332C67.9963 24.9571 59.0985 25.6119 50.1944 25.4903L50.0716 25.8645C54.6458 25.9136 59.2815 25.7725 64.04 25.4903C59.0543 25.9872 54.3695 26.2387 49.9181 26.3001L47.2656 34.3982H56.4755L58.1763 28.8768H68.5835L70.3334 34.3982H80.4827L76.7865 23.5332Z" fill="black" fill-opacity="0.2"/>
<path d="M76.7865 23.5332C67.9963 24.9571 59.0985 25.6119 50.1944 25.4903L50.0716 25.8645C54.6458 25.9136 59.2815 25.7725 64.04 25.4903C59.0543 25.9872 54.3695 26.2387 49.9181 26.3001L47.2656 34.3982H56.4755L58.1763 28.8768H68.5835L70.3334 34.3982H80.4827L76.7865 23.5332Z" fill="black" fill-opacity="0.2"/>
<path d="M76.7865 23.5332C67.9963 24.9571 59.0985 25.6119 50.1944 25.4903L50.0716 25.8645C54.6458 25.9136 59.2815 25.7725 64.04 25.4903C59.0543 25.9872 54.3695 26.2387 49.9181 26.3001L47.2656 34.3982H56.4755L58.1763 28.8768H68.5835L70.3334 34.3982H80.4827L76.7865 23.5332Z" fill="black" fill-opacity="0.2"/>
<path d="M68.9824 23.6617C69.6394 23.6311 70.2902 23.5697 70.9349 23.4961C70.2841 23.5513 69.6271 23.6188 68.9824 23.6617Z" fill="#3E63AA"/>
<path d="M68.9824 23.6617C69.6394 23.6311 70.2902 23.5697 70.9349 23.4961C70.2841 23.5513 69.6271 23.6188 68.9824 23.6617Z" fill="black" fill-opacity="0.2"/>
<path d="M68.9824 23.6617C69.6394 23.6311 70.2902 23.5697 70.9349 23.4961C70.2841 23.5513 69.6271 23.6188 68.9824 23.6617Z" fill="black" fill-opacity="0.2"/>
<path d="M68.9824 23.6617C69.6394 23.6311 70.2902 23.5697 70.9349 23.4961C70.2841 23.5513 69.6271 23.6188 68.9824 23.6617Z" fill="black" fill-opacity="0.2"/>
<path d="M76.5827 22.9323L68.9508 0.65625H58.3164L50.8932 23.417C56.9191 23.8898 62.9693 23.9738 69.006 23.6685C69.6507 23.6256 70.3077 23.5581 70.9585 23.5029C70.3138 23.5765 69.663 23.6378 69.006 23.6685C62.927 24.1018 56.8277 24.1776 50.7397 23.8955L50.666 24.1102C59.3769 24.6069 68.1136 24.4018 76.7915 23.4967L76.5827 22.9323ZM60.4469 21.5949L61.5951 17.9139C62.2965 15.8178 62.8423 13.673 63.2283 11.4967H63.3266C63.7071 13.4795 64.2262 15.4331 64.88 17.3434L66.2308 21.5949H60.4469Z" fill="#3E63AA"/>
<path d="M76.5827 22.9323L68.9508 0.65625H58.3164L50.8932 23.417C56.9191 23.8898 62.9693 23.9738 69.006 23.6685C69.6507 23.6256 70.3077 23.5581 70.9585 23.5029C70.3138 23.5765 69.663 23.6378 69.006 23.6685C62.927 24.1018 56.8277 24.1776 50.7397 23.8955L50.666 24.1102C59.3769 24.6069 68.1136 24.4018 76.7915 23.4967L76.5827 22.9323ZM60.4469 21.5949L61.5951 17.9139C62.2965 15.8178 62.8423 13.673 63.2283 11.4967H63.3266C63.7071 13.4795 64.2262 15.4331 64.88 17.3434L66.2308 21.5949H60.4469Z" fill="black" fill-opacity="0.2"/>
<path d="M76.5827 22.9323L68.9508 0.65625H58.3164L50.8932 23.417C56.9191 23.8898 62.9693 23.9738 69.006 23.6685C69.6507 23.6256 70.3077 23.5581 70.9585 23.5029C70.3138 23.5765 69.663 23.6378 69.006 23.6685C62.927 24.1018 56.8277 24.1776 50.7397 23.8955L50.666 24.1102C59.3769 24.6069 68.1136 24.4018 76.7915 23.4967L76.5827 22.9323ZM60.4469 21.5949L61.5951 17.9139C62.2965 15.8178 62.8423 13.673 63.2283 11.4967H63.3266C63.7071 13.4795 64.2262 15.4331 64.88 17.3434L66.2308 21.5949H60.4469Z" fill="black" fill-opacity="0.2"/>
<path d="M76.5827 22.9323L68.9508 0.65625H58.3164L50.8932 23.417C56.9191 23.8898 62.9693 23.9738 69.006 23.6685C69.6507 23.6256 70.3077 23.5581 70.9585 23.5029C70.3138 23.5765 69.663 23.6378 69.006 23.6685C62.927 24.1018 56.8277 24.1776 50.7397 23.8955L50.666 24.1102C59.3769 24.6069 68.1136 24.4018 76.7915 23.4967L76.5827 22.9323ZM60.4469 21.5949L61.5951 17.9139C62.2965 15.8178 62.8423 13.673 63.2283 11.4967H63.3266C63.7071 13.4795 64.2262 15.4331 64.88 17.3434L66.2308 21.5949H60.4469Z" fill="black" fill-opacity="0.2"/>
</g>
<defs>
<clipPath id="clip0_3003_72">
<rect width="159" height="48" fill="white"/>
</clipPath>
</defs>
</svg>
