<svg width="49" height="48" viewBox="0 0 49 48" fill="none" xmlns="http://www.w3.org/2000/svg">
<path d="M19.7 31.2L22.5 28.3L18.2 24L22.5 19.7L19.7 16.8L12.5 24L19.7 31.2ZM29.3 31.2L36.5 24L29.3 16.8L26.5 19.7L30.8 24L26.5 28.3L29.3 31.2ZM6.5 42V6H18.9C19.3333 4.8 20.0587 3.83333 21.076 3.1C22.0933 2.36667 23.2347 2 24.5 2C25.7653 2 26.9073 2.36667 27.926 3.1C28.9447 3.83333 29.6693 4.8 30.1 6H42.5V42H6.5ZM24.5 8.5C24.9333 8.5 25.292 8.358 25.576 8.074C25.86 7.79 26.0013 7.432 26 7C25.9987 6.568 25.8567 6.21 25.574 5.926C25.2913 5.642 24.9333 5.5 24.5 5.5C24.0667 5.5 23.7087 5.642 23.426 5.926C23.1433 6.21 23.0013 6.568 23 7C22.9987 7.432 23.1407 7.79067 23.426 8.076C23.7113 8.36133 24.0693 8.50267 24.5 8.5Z" fill="#192C50"/>
</svg>
