<svg width="19" height="18" viewBox="0 0 19 18" fill="none" xmlns="http://www.w3.org/2000/svg">
<g clip-path="url(#clip0_3043_58)">
<path d="M3.87692 2.31606C3.87667 2.80161 3.67219 3.26718 3.30848 3.61034C2.94476 3.95351 2.4516 4.14616 1.93749 4.14591C1.42338 4.14567 0.930427 3.95255 0.567077 3.60905C0.203727 3.26554 -0.000256813 2.79978 2.42658e-07 2.31423C0.000257299 1.82868 0.204734 1.36311 0.568448 1.01995C0.932162 0.676784 1.42532 0.484132 1.93943 0.484375C2.45354 0.484618 2.9465 0.677735 3.30985 1.02124C3.6732 1.36475 3.87718 1.83051 3.87692 2.31606ZM3.93508 5.5016H0.058154V16.9622H3.93508V5.5016ZM10.0606 5.5016H6.20308V16.9622H10.0218V10.9481C10.0218 7.59783 14.6451 7.2866 14.6451 10.9481V16.9622H18.4735V9.70321C18.4735 4.05529 11.6308 4.26583 10.0218 7.03944L10.0606 5.5016Z" fill="black"/>
</g>
<defs>
<clipPath id="clip0_3043_58">
<rect width="18.6667" height="17.2308" fill="white" transform="translate(0 0.484375)"/>
</clipPath>
</defs>
</svg>
