<svg width="32" height="32" viewBox="0 0 32 32" fill="none" xmlns="http://www.w3.org/2000/svg">
<rect width="32" height="32" rx="4" fill="white" fill-opacity="0.1"/>
<g clip-path="url(#clip0_3003_57)">
<path d="M10.8769 9.31606C10.8767 9.80161 10.6722 10.2672 10.3085 10.6103C9.94476 10.9535 9.4516 11.1462 8.93749 11.1459C8.42338 11.1457 7.93043 10.9526 7.56708 10.609C7.20373 10.2655 6.99974 9.79978 7 9.31423C7.00026 8.82868 7.20473 8.36311 7.56845 8.01995C7.93216 7.67678 8.42532 7.48413 8.93943 7.48438C9.45354 7.48462 9.9465 7.67773 10.3098 8.02124C10.6732 8.36475 10.8772 8.83051 10.8769 9.31606ZM10.9351 12.5016H7.05815V23.9622H10.9351V12.5016ZM17.0606 12.5016H13.2031V23.9622H17.0218V17.9481C17.0218 14.5978 21.6451 14.2866 21.6451 17.9481V23.9622H25.4735V16.7032C25.4735 11.0553 18.6308 11.2658 17.0218 14.0394L17.0606 12.5016Z" fill="black"/>
</g>
<defs>
<clipPath id="clip0_3003_57">
<rect width="18.6667" height="17.2308" fill="white" transform="translate(7 7.48438)"/>
</clipPath>
</defs>
</svg>
