<svg width="24" height="24" viewBox="0 0 24 24" fill="none" xmlns="http://www.w3.org/2000/svg">
<rect width="24" height="24" rx="4" fill="white"/>
<g clip-path="url(#clip0_1481_8917)">
<path d="M7.90769 7.37376C7.9075 7.73793 7.75414 8.0871 7.48136 8.34447C7.20857 8.60185 6.8387 8.74634 6.45312 8.74615C6.06754 8.74597 5.69782 8.60113 5.42531 8.3435C5.1528 8.08587 4.99981 7.73655 5 7.37239C5.00019 7.00823 5.15355 6.65905 5.42634 6.40168C5.69912 6.14431 6.06899 5.99982 6.45457 6C6.84016 6.00018 7.20987 6.14502 7.48238 6.40265C7.7549 6.66028 7.90789 7.0096 7.90769 7.37376ZM7.95131 9.76292H5.04362V18.3584H7.95131V9.76292ZM12.5455 9.76292H9.65231V18.3584H12.5164V13.8478C12.5164 11.3351 15.9838 11.1017 15.9838 13.8478V18.3584H18.8552V12.9141C18.8552 8.67819 13.7231 8.83609 12.5164 10.9163L12.5455 9.76292Z" fill="#3E63AA"/>
</g>
<defs>
<clipPath id="clip0_1481_8917">
<rect width="14" height="12.9231" fill="white" transform="translate(5 6)"/>
</clipPath>
</defs>
</svg>
