<svg width="32" height="32" viewBox="0 0 32 32" fill="none" xmlns="http://www.w3.org/2000/svg">
<rect width="32" height="32" rx="4" fill="white" fill-opacity="0.16"/>
<path opacity="0.8" d="M15.4763 6.00871C14.6206 6.14211 13.8882 6.37971 13.1678 6.75488C12.4633 7.12588 11.9896 7.48855 11.3767 8.1305C10.7637 8.77246 10.4175 9.26851 10.0632 10.0063C9.56571 11.0568 9.37068 11.8613 9.33884 13.0285C9.32292 13.7122 9.33088 13.8497 9.40651 14.2374C9.76074 16.0341 10.8911 18.406 12.8892 21.5324C14.1748 23.5499 15.7509 25.7676 16.0057 25.9218C16.1768 26.0261 16.4873 26.0261 16.6584 25.9218C16.8972 25.7759 18.6724 23.279 19.8306 21.4573C21.761 18.4226 22.9113 15.9965 23.2576 14.2374C23.3332 13.8497 23.3411 13.7122 23.3252 13.0285C23.3093 12.4658 23.2814 12.1448 23.2178 11.8405C22.6924 9.25601 20.9212 7.16757 18.5609 6.3422C17.7928 6.07541 17.4465 6.01705 16.4713 6.00455C15.9897 5.99621 15.544 6.00038 15.4763 6.00871ZM17.1719 10.1689C17.8843 10.4274 18.4893 11.0777 18.7241 11.828C18.8077 12.0906 18.8196 12.2115 18.8196 12.6951C18.8157 13.2286 18.8117 13.2745 18.6883 13.5913C18.3858 14.3833 17.7211 15.0044 16.945 15.217C16.6385 15.3004 16.0455 15.3004 15.727 15.217C14.8235 14.9711 14.119 14.2291 13.8842 13.2787C13.7847 12.8701 13.8166 12.1907 13.9559 11.778C14.4215 10.4107 15.8584 9.68954 17.1719 10.1689Z" fill="black"/>
</svg>
