<svg width="15" height="20" viewBox="0 0 15 20" fill="none" xmlns="http://www.w3.org/2000/svg">
<path opacity="0.8" d="M6.47629 0.00871468C5.62055 0.142107 4.8882 0.379715 4.16778 0.754883C3.46329 1.12588 2.98965 1.48855 2.3767 2.1305C1.76375 2.77246 1.41747 3.26851 1.06324 4.00635C0.565714 5.05682 0.370685 5.86135 0.338843 7.02854C0.322922 7.71218 0.330883 7.84974 0.406506 8.23742C0.760743 10.0341 1.89112 12.406 3.88917 15.5324C5.17477 17.5499 6.75092 19.7676 7.00566 19.9218C7.1768 20.0261 7.48726 20.0261 7.65841 19.9218C7.89722 19.7759 9.67238 17.279 10.8306 15.4573C12.761 12.4226 13.9113 9.99654 14.2576 8.23742C14.3332 7.84974 14.3411 7.71218 14.3252 7.02854C14.3093 6.46579 14.2814 6.14481 14.2178 5.8405C13.6924 3.25601 11.9212 1.16757 9.56094 0.342197C8.79276 0.0754108 8.44648 0.0170517 7.47134 0.00454521C6.98974 -0.00379181 6.54395 0.000377655 6.47629 0.00871468ZM8.17185 4.16892C8.8843 4.42737 9.48929 5.07766 9.72412 5.828C9.80771 6.09062 9.81965 6.2115 9.81965 6.69506C9.81567 7.22863 9.81169 7.27448 9.6883 7.59129C9.38581 8.38332 8.72112 9.00443 7.94498 9.21702C7.63851 9.3004 7.04546 9.3004 6.72704 9.21702C5.82354 8.97108 5.11905 8.22908 4.88422 7.27865C4.78471 6.87013 4.81655 6.19066 4.95586 5.77798C5.42154 4.4107 6.85839 3.68954 8.17185 4.16892Z" fill="black"/>
</svg>
