<svg width="49" height="48" viewBox="0 0 49 48" fill="none" xmlns="http://www.w3.org/2000/svg">
<path d="M22.5 30V26H26.5V30H22.5ZM20.5 12H28.5V8H20.5V12ZM8.5 42C7.4 42 6.45867 41.6087 5.676 40.826C4.89333 40.0433 4.50133 39.1013 4.5 38V30H18.5V32C18.5 32.5667 18.692 33.042 19.076 33.426C19.46 33.81 19.9347 34.0013 20.5 34H28.5C29.0667 34 29.542 33.808 29.926 33.424C30.31 33.04 30.5013 32.5653 30.5 32V30H44.5V38C44.5 39.1 44.1087 40.042 43.326 40.826C42.5433 41.61 41.6013 42.0013 40.5 42H8.5ZM4.5 26V16C4.5 14.9 4.892 13.9587 5.676 13.176C6.46 12.3933 7.40133 12.0013 8.5 12H16.5V8C16.5 6.9 16.892 5.95867 17.676 5.176C18.46 4.39333 19.4013 4.00133 20.5 4H28.5C29.6 4 30.542 4.392 31.326 5.176C32.11 5.96 32.5013 6.90133 32.5 8V12H40.5C41.6 12 42.542 12.392 43.326 13.176C44.11 13.96 44.5013 14.9013 44.5 16V26H30.5V24C30.5 23.4333 30.308 22.9587 29.924 22.576C29.54 22.1933 29.0653 22.0013 28.5 22H20.5C19.9333 22 19.4587 22.192 19.076 22.576C18.6933 22.96 18.5013 23.4347 18.5 24V26H4.5Z" fill="#192C50"/>
</svg>
