<svg width="24" height="24" viewBox="0 0 24 24" fill="none" xmlns="http://www.w3.org/2000/svg">
<rect width="24" height="24" rx="4" fill="white"/>
<path d="M6.94062 4.52342C6.22194 4.70483 5.54109 5.30952 5.24227 6.03516C5.04936 6.50379 4.9964 6.82126 5.00019 7.4902C5.00397 8.54086 5.2347 9.41011 5.84747 10.6649C6.49806 11.9952 7.40587 13.2348 8.62384 14.4442C10.4735 16.281 12.5917 17.5244 14.5094 17.9061C15.0844 18.0232 15.9733 18.0308 16.412 17.9287C17.369 17.702 18.0385 17.1615 18.3941 16.315C18.4811 16.1071 18.4962 16.0126 18.5 15.7065C18.5 15.3664 18.4924 15.3323 18.3563 15.0564C18.1709 14.6861 18.0801 14.6029 16.7865 13.7072C15.5799 12.872 15.4815 12.8266 14.9633 12.8455C14.343 12.8682 14.0026 13.0912 13.5336 13.7904C13.4239 13.9529 13.3217 14.0852 13.3066 14.0852C13.2915 14.0852 13.0645 13.9264 12.8073 13.7299C11.5666 12.8002 10.1974 11.4321 9.26687 10.1924C9.07018 9.93544 8.91131 9.71246 8.91131 9.69734C8.91131 9.686 9.07018 9.56128 9.26687 9.42523C9.72455 9.10398 9.87964 8.94525 10.0196 8.65046C10.2125 8.23851 10.2201 7.7472 10.0347 7.35037C9.92503 7.11227 8.54819 5.13567 8.3515 4.92781C8.27207 4.84844 8.0905 4.72372 7.94299 4.65192C7.71982 4.53854 7.62147 4.51586 7.37561 4.50452C7.20918 4.49319 7.01627 4.50452 6.94062 4.52342Z" fill="#3E63AA"/>
</svg>
