<svg width="32" height="32" viewBox="0 0 32 32" fill="none" xmlns="http://www.w3.org/2000/svg">
<rect width="32" height="32" rx="4" fill="white" fill-opacity="0.16"/>
<g opacity="0.8">
<path d="M9.91952 7.03123C8.96128 7.2731 8.05348 8.07936 7.65505 9.04688C7.39784 9.67173 7.32724 10.095 7.33228 10.9869C7.33732 12.3878 7.64497 13.5468 8.46199 15.2198C9.32945 16.9936 10.5399 18.6464 12.1638 20.2589C14.63 22.7079 17.4543 24.3658 20.0113 24.8748C20.7779 25.031 21.9631 25.0411 22.5481 24.905C23.8241 24.6026 24.7167 23.8821 25.1908 22.7533C25.3068 22.4761 25.327 22.3502 25.332 21.942C25.332 21.4885 25.3219 21.4431 25.1404 21.0753C24.8933 20.5814 24.7722 20.4706 23.0474 19.2763C21.4386 18.1626 21.3074 18.1022 20.6165 18.1274C19.7894 18.1576 19.3355 18.4549 18.7101 19.3872C18.5638 19.6038 18.4277 19.7802 18.4075 19.7802C18.3873 19.7802 18.0847 19.5686 17.7418 19.3065C16.0876 18.0669 14.2619 16.2427 13.0212 14.5899C12.7589 14.2472 12.5471 13.9499 12.5471 13.9298C12.5471 13.9147 12.7589 13.7484 13.0212 13.567C13.6314 13.1386 13.8382 12.927 14.0248 12.5339C14.282 11.9847 14.2921 11.3296 14.045 10.8005C13.8987 10.483 12.063 7.84756 11.8007 7.57041C11.6948 7.46459 11.4527 7.2983 11.256 7.20256C10.9585 7.05138 10.8273 7.02115 10.4995 7.00603C10.2776 6.99091 10.0204 7.00603 9.91952 7.03123Z" fill="black"/>
</g>
</svg>
