<svg width="19" height="18" viewBox="0 0 19 18" fill="none" xmlns="http://www.w3.org/2000/svg">
<g opacity="0.8">
<path d="M2.91952 0.0312252C1.96128 0.273104 1.05348 1.07936 0.655055 2.04688C0.397843 2.67173 0.327236 3.09501 0.332279 3.98694C0.337323 5.38781 0.644968 6.54681 1.46199 8.2198C2.32945 9.99357 3.53986 11.6464 5.16382 13.2589C7.63002 15.7079 10.4543 17.3658 13.0113 17.8748C13.7779 18.031 14.9631 18.0411 15.5481 17.905C16.8241 17.6026 17.7167 16.8821 18.1908 15.7533C18.3068 15.4761 18.327 15.3502 18.332 14.942C18.332 14.4885 18.3219 14.4431 18.1404 14.0753C17.8933 13.5814 17.7722 13.4706 16.0474 12.2763C14.4386 11.1626 14.3074 11.1022 13.6165 11.1274C12.7894 11.1576 12.3355 11.4549 11.7101 12.3872C11.5638 12.6038 11.4277 12.7802 11.4075 12.7802C11.3873 12.7802 11.0847 12.5686 10.7418 12.3065C9.08755 11.0669 7.26186 9.24274 6.02119 7.58991C5.75893 7.24725 5.54711 6.94994 5.54711 6.92978C5.54711 6.91467 5.75893 6.74838 6.02119 6.56697C6.63144 6.13864 6.83821 5.927 7.02482 5.53395C7.28203 4.98468 7.29212 4.3296 7.04499 3.80049C6.89873 3.48303 5.06295 0.847565 4.8007 0.570412C4.69479 0.46459 4.4527 0.2983 4.25601 0.202557C3.95846 0.0513821 3.82733 0.0211468 3.49951 0.00603104C3.2776 -0.00908661 3.02039 0.00603104 2.91952 0.0312252Z" fill="black"/>
</g>
</svg>
